<?xml version="1.0" encoding="UTF-8"?>
<svg xmlns="http://www.w3.org/2000/svg" width="58" height="39" viewBox="0 0 58 39" fill="none">
  <path d="M57.38 35.3614C57.2 35.7614 57.02 36.1613 56.77 36.7313C50.08 31.7413 43.44 26.8014 36.52 21.6314C36.87 21.4414 37.1301 21.3714 37.3101 21.2014C43.6301 15.2614 49.94 9.31135 56.26 3.36135C56.58 3.06135 56.89 2.46137 57.38 3.19137C57.38 13.9214 57.38 24.6413 57.38 35.3614Z" fill="#41AED0"></path>
  <path d="M3.32996 0.230469C20.52 0.230469 37.4799 0.230469 54.45 0.230469C54.51 0.350469 54.57 0.460505 54.64 0.580505C54.32 0.820505 53.96 1.02047 53.67 1.29047C46.89 7.67047 40.12 14.0605 33.33 20.4405C30.64 22.9705 27.4599 23.0405 24.8199 20.5705C17.8599 14.0505 10.94 7.50051 4 0.96051C3.81 0.80051 3.65996 0.600469 3.32996 0.230469Z" fill="#41AED0"></path>
  <path d="M54.6 38.56C37.52 38.56 20.4399 38.56 3.06995 38.56C3.50995 38.16 3.70005 37.96 3.93005 37.79C10.0601 33.21 16.1899 28.64 22.3199 24.07C22.7699 23.73 23.1 23.46 23.75 23.9C27.22 26.29 30.9 26.24 34.38 23.84C34.53 23.74 34.69 23.65 34.92 23.5C41.51 28.41 48.0999 33.33 54.6899 38.24C54.6599 38.36 54.63 38.46 54.6 38.56Z" fill="#41AED0"></path>
  <path d="M0.849961 2.53906C7.77996 9.05906 14.48 15.3791 21.27 21.7791C14.58 26.7691 7.95996 31.7091 1.09996 36.8191C0.909961 35.8691 0.62999 35.1091 0.62999 34.3391C0.59999 24.3291 0.60998 14.3291 0.61998 4.31909C0.61998 3.81909 0.749961 3.31906 0.849961 2.53906Z" fill="#41AED0"></path>
</svg>
