<?xml version="1.0" encoding="UTF-8"?>
<svg xmlns="http://www.w3.org/2000/svg" width="41" height="59" viewBox="0 0 41 59" fill="none">
  <path d="M20.55 59.0017C18.9 56.2817 17.33 53.6918 15.76 51.0918C11.96 44.8118 8.15002 38.5417 4.37002 32.2417C2.27002 28.7317 0.800046 24.9617 0.460046 20.8717C0.170046 17.3717 1.02004 14.0317 2.64004 10.9217C6.49004 3.57172 14.07 -0.588233 22.32 0.0917673C31.5 0.841767 39.14 8.11171 40.47 17.2217C40.97 20.6317 40.25 23.8117 39.16 26.9717C38.09 30.0817 36.38 32.8518 34.69 35.6418C30.56 42.4518 26.44 49.2618 22.31 56.0818C21.75 57.0218 21.18 57.9617 20.55 59.0017ZM20.4 29.5517C25.64 29.5517 29.84 25.3617 29.85 20.1317C29.85 14.9317 25.63 10.7118 20.4 10.7118C15.25 10.7018 11 14.9718 11.01 20.1418C11.01 25.3218 15.23 29.5517 20.4 29.5517Z" fill="#41AED0"></path>
</svg>
