<?xml version="1.0" encoding="UTF-8"?>
<svg xmlns="http://www.w3.org/2000/svg" width="48" height="48" viewBox="0 0 48 48" fill="none">
  <path d="M0.51001 8.57124C0.54001 8.47124 0.580027 8.37124 0.590027 8.26124C0.700027 6.85124 1.29002 5.65123 2.15002 4.56123C2.76002 3.78123 3.49999 3.15125 4.29999 2.58125C5.42999 1.77125 6.62997 1.10123 7.90997 0.561233C8.17997 0.441233 8.45998 0.321206 8.72998 0.221206C9.52998 -0.0787942 10.3 0.00124735 11.01 0.451247C11.34 0.661247 11.66 0.911218 11.96 1.17122C12.95 2.03122 13.79 3.03126 14.56 4.09126C15.84 5.85126 17.02 7.69125 18 9.64125C18.36 10.3512 18.67 11.0812 18.96 11.8212C19.1 12.1612 19.16 12.5412 19.22 12.9112C19.33 13.5712 19.19 14.2012 18.93 14.8112C18.74 15.2412 18.5 15.6413 18.23 16.0213C17.93 16.4413 17.61 16.8513 17.31 17.2813C17.13 17.5313 16.96 17.7812 16.8 18.0412C16.62 18.3412 16.59 18.6612 16.69 18.9912C16.84 19.5112 17.07 19.9913 17.32 20.4613C18.22 22.1613 19.34 23.7012 20.62 25.1312C22.32 27.0212 24.27 28.6012 26.48 29.8612C27.08 30.2012 27.7 30.5012 28.35 30.7212C28.81 30.8812 29.24 30.8312 29.64 30.5612C29.77 30.4712 29.9 30.3912 30.02 30.3012C30.26 30.1212 30.5 29.9413 30.74 29.7713C31.17 29.4613 31.59 29.1512 32.03 28.8512C32.51 28.5312 33.03 28.2812 33.6 28.1812C34.3 28.0512 34.97 28.1513 35.63 28.3913C36.38 28.6713 37.1 29.0412 37.81 29.4112C40.05 30.6012 42.21 31.9312 44.23 33.4812C45.05 34.1112 45.81 34.8113 46.48 35.5913C46.7 35.8413 46.9 36.1113 47.08 36.4013C47.29 36.7313 47.44 37.0912 47.46 37.4912C47.46 37.5312 47.48 37.5812 47.5 37.6212C47.5 37.7312 47.5 37.8312 47.5 37.9412C47.49 37.9812 47.46 38.0212 47.46 38.0712C47.45 38.3312 47.38 38.5812 47.28 38.8212C47.17 39.0912 47.05 39.3512 46.94 39.6212C46.38 40.9112 45.69 42.1212 44.86 43.2512C44.14 44.2412 43.31 45.1213 42.26 45.7713C41.26 46.3913 40.2 46.8312 39.02 46.9512C38.86 46.9712 38.71 47.0013 38.55 47.0313C38.32 47.0313 38.09 47.0313 37.86 47.0313C37.79 47.0213 37.71 47.0012 37.64 46.9912C36.98 46.9312 36.32 46.8312 35.67 46.6812C34.23 46.3412 32.86 45.8012 31.52 45.1812C29.98 44.4712 28.51 43.6213 27.04 42.7713C24.03 41.0113 21.17 39.0513 18.51 36.7813C16.18 34.7913 14.01 32.6412 11.92 30.4112C10.11 28.4712 8.44002 26.4112 6.96002 24.2012C5.61002 22.1912 4.4 20.0912 3.25 17.9512C2.55 16.6512 1.94002 15.3112 1.46002 13.9112C1.03002 12.6612 0.700017 11.3812 0.580017 10.0612C0.570017 9.96123 0.53 9.86123 0.5 9.75124C0.51 9.34124 0.51001 8.96124 0.51001 8.57124Z" fill="#41AED0"></path>
</svg>
