<?xml version="1.0" encoding="UTF-8"?>
<svg width="82px" height="82px" viewBox="0 0 82 82" version="1.1" xmlns="http://www.w3.org/2000/svg" xmlns:xlink="http://www.w3.org/1999/xlink">
    <title>linkedin</title>
    <g id="Page-1" stroke="none" stroke-width="1" fill="none" fill-rule="evenodd">
        <g id="Home" transform="translate(-532.000000, -5697.000000)" fill-rule="nonzero">
            <g id="Group-2" transform="translate(517.229493, 5656.500000)">
                <g id="linkedin" transform="translate(14.770507, 40.500000)">
                    <path d="M81.319927,40.6602 C81.319927,63.1102 63.119927,81.3198 40.659927,81.3198 C18.209927,81.3198 0,63.1202 0,40.6602 C0,18.2102 18.199927,0 40.659927,0 C63.109927,0 81.319927,18.2002 81.319927,40.6602 Z" id="Path" fill="#383838" opacity="0"></path>
                    <path d="M26.260527,29.7905 C29.154427,29.7905 31.500527,27.4443 31.500527,24.5503 C31.500527,21.6563 29.154427,19.3105 26.260527,19.3105 C23.366527,19.3105 21.020527,21.6563 21.020527,24.5503 C21.020527,27.4443 23.366527,29.7905 26.260527,29.7905 Z" id="Path" fill="#FFFFFF"></path>
                    <path d="M28.720327,33.2803 L23.810327,33.2803 C22.755427,33.2803 21.900427,34.1356 21.900427,35.1904 L21.900427,57.5503 C21.900427,58.6052 22.755427,59.4604 23.810327,59.4604 L28.720327,59.4604 C29.775227,59.4604 30.630327,58.6052 30.630327,57.5503 L30.630327,35.1904 C30.630327,34.1356 29.775227,33.2803 28.720327,33.2803 Z" id="Path" fill="#FFFFFF"></path>
                    <path d="M60.300527,42.8799 L60.300527,57.7202 C60.300527,58.6802 59.510527,59.4702 58.550527,59.4702 L53.310527,59.4702 C52.350527,59.4702 51.560527,58.6802 51.560527,57.7202 L51.560527,45.6001 C51.560527,43.3301 49.860627,41.3599 47.600627,41.1499 C45.010627,40.9199 42.840527,42.95 42.840527,45.5 L42.840527,57.7202 C42.840527,58.6802 42.050527,59.4702 41.090527,59.4702 L35.850627,59.4702 C34.890627,59.4702 34.100627,58.6802 34.100627,57.7202 L34.100627,35.0298 C34.100627,34.0698 34.890627,33.2798 35.850627,33.2798 L41.090527,33.2798 C42.050527,33.2798 42.840527,34.0698 42.840527,35.0298 L42.840527,36.1499 C44.590527,33.8899 47.470527,32.4102 50.690527,32.4102 C55.510527,32.4102 60.290527,35.8999 60.290527,42.8799 L60.300527,42.8799 Z" id="Path" fill="#FFFFFF"></path>
                </g>
            </g>
        </g>
    </g>
</svg>