<?xml version="1.0" encoding="UTF-8"?>
<svg xmlns="http://www.w3.org/2000/svg" width="72" height="49" viewBox="0 0 72 49" fill="none">
  <path d="M36.7097 17.2299V17.2599H45.8998C46.4098 17.2599 46.8197 16.8498 46.8197 16.3398V1.31982C46.8197 0.809824 46.4098 0.399902 45.8998 0.399902H26.1798C25.6698 0.399902 25.2598 0.809824 25.2598 1.31982V16.3398C25.2598 16.8498 25.6698 17.2599 26.1798 17.2599H35.3698V17.2299H36.7097ZM27.0997 15.4299V2.24988H44.9797V15.4299H27.0997Z" fill="#272525"></path>
  <path d="M21.6499 47.71V32.6899C21.6499 32.1799 21.2399 31.77 20.7299 31.77H1.00989C0.499888 31.77 0.0898438 32.1799 0.0898438 32.6899V47.71C0.0898438 48.22 0.499888 48.63 1.00989 48.63H20.7299C21.2399 48.63 21.6499 48.22 21.6499 47.71ZM19.8099 46.79H1.92993V33.61H19.8099V46.79Z" fill="#272525"></path>
  <path d="M26.1895 31.77C25.6795 31.77 25.2695 32.1799 25.2695 32.6899V47.71C25.2695 48.22 25.6795 48.63 26.1895 48.63H45.9095C46.4195 48.63 46.8295 48.22 46.8295 47.71V32.6899C46.8295 32.1799 46.4195 31.77 45.9095 31.77H26.1895ZM44.9895 46.79H27.1095V33.61H44.9895V46.79Z" fill="#272525"></path>
  <path d="M51.3595 31.77C50.8495 31.77 50.4395 32.1799 50.4395 32.6899V47.71C50.4395 48.22 50.8495 48.63 51.3595 48.63H71.0795C71.5895 48.63 71.9995 48.22 71.9995 47.71V32.6899C71.9995 32.1799 71.5895 31.77 71.0795 31.77H51.3595ZM70.1595 46.79H52.2795V33.61H70.1595V46.79Z" fill="#272525"></path>
  <path d="M11.4004 30.49H12.7404V25.48H35.3804V30.49H36.7103V25.48H59.3503V30.49H60.6903V24.15H36.7103V17.26V17.23H35.3804V17.26V24.15H11.4004V30.49Z" fill="#272525"></path>
</svg>
