<?xml version="1.0" encoding="UTF-8"?>
<svg xmlns="http://www.w3.org/2000/svg" width="71" height="68" viewBox="0 0 71 68" fill="none">
  <path d="M62.6197 11.1401H49.6797V19.3301H62.6197V11.1401ZM59.0297 12.2301L56.1497 14.5302L53.2697 12.2301H59.0297ZM61.5297 18.2401H50.7797V12.2401H51.5197L56.1497 15.9401L60.7797 12.2401H61.5197V18.2401H61.5297Z" fill="#272525"></path>
  <path d="M31.9302 57.1401C32.1402 59.2001 33.0602 61.1501 34.5302 62.6101C34.7102 62.7901 34.9502 62.8801 35.2002 62.8801C35.3002 62.8801 35.3902 62.8701 35.4902 62.8401C35.8302 62.7301 36.0702 62.4501 36.1302 62.1001C36.3702 60.7201 37.5602 59.7201 38.9602 59.7201H43.6702C44.8602 59.7201 45.9102 60.4402 46.3502 61.5602C46.4702 61.8802 46.7502 62.1001 47.0902 62.1501C47.4202 62.2001 47.7602 62.0702 47.9702 61.8002C49.4402 59.9602 50.1202 57.6402 49.8802 55.2802C49.4602 51.0302 46.0702 47.6401 41.8302 47.2301C41.5102 47.2001 41.2002 47.1802 40.9102 47.1802C38.3702 47.1802 35.9302 48.2601 34.2202 50.1501C32.4902 52.0601 31.6802 54.5401 31.9302 57.1301V57.1401ZM40.9102 58.3601C39.0302 58.3601 37.4902 56.8301 37.4902 54.9401C37.4902 53.0501 39.0202 51.5201 40.9102 51.5201C42.8002 51.5201 44.3302 53.0501 44.3302 54.9401C44.3302 56.8301 42.8002 58.3601 40.9102 58.3601ZM35.6202 51.4302C36.9702 49.9402 38.9002 49.0801 40.9102 49.0801C41.1402 49.0801 41.3902 49.0901 41.6502 49.1201C45.0002 49.4501 47.6802 52.1301 48.0102 55.4801C48.1502 56.8701 47.8802 58.2501 47.2602 59.4601C46.5102 58.6001 45.4802 58.0401 44.3202 57.8901C45.0002 57.1001 45.4202 56.0701 45.4202 54.9501C45.4202 52.4601 43.4002 50.4401 40.9102 50.4401C38.4202 50.4401 36.4002 52.4601 36.4002 54.9501C36.4002 56.1401 36.8702 57.2302 37.6302 58.0402C36.5002 58.3702 35.5302 59.1001 34.9102 60.1001C34.3002 59.1601 33.9202 58.0801 33.8102 56.9601C33.6102 54.9101 34.2502 52.9501 35.6202 51.4401V51.4302Z" fill="#272525"></path>
  <path d="M8.37976 39.1901C8.64976 39.4601 9.05977 39.5401 9.40977 39.3901C9.75977 39.2401 9.98976 38.9001 9.98976 38.5201V37.6901C9.98976 34.7701 12.1698 32.3301 15.0698 32.0101C15.0798 32.0101 15.0898 32.0101 15.0998 32.0101C15.3198 31.9901 15.5198 31.9801 15.7098 31.9801H23.9198C27.0798 31.9801 29.6398 34.5501 29.6398 37.7001V38.5302C29.6398 38.9102 29.8698 39.2501 30.2198 39.4001C30.3398 39.4501 30.4598 39.4701 30.5798 39.4701C30.8198 39.4701 31.0598 39.3801 31.2398 39.2001C34.3698 36.1101 36.0898 32.0001 36.0898 27.6201C36.0898 18.6401 28.7798 11.3301 19.7998 11.3301C10.8198 11.3301 3.50977 18.6401 3.50977 27.6201C3.50977 32.0001 5.22976 36.1101 8.35976 39.2001L8.37976 39.1901ZM20.6898 30.0701H18.9498C15.8998 29.6401 13.5498 27.0301 13.5498 23.8601C13.5498 20.4001 16.3598 17.5801 19.8198 17.5801C23.2798 17.5801 26.0998 20.4001 26.0998 23.8601C26.0998 27.0201 23.7398 29.6401 20.6998 30.0701H20.6898ZM19.8198 13.2101C27.7598 13.2101 34.2198 19.6701 34.2198 27.6101C34.2198 30.7301 33.2298 33.7002 31.3898 36.1702C30.7298 32.9302 28.0098 30.4301 24.6598 30.1101C26.5298 28.6601 27.7298 26.4101 27.7298 23.8701C27.7298 19.5101 24.1798 15.9501 19.8098 15.9501C15.4398 15.9501 11.8998 19.5001 11.8998 23.8701C11.8998 26.4101 13.1098 28.6701 14.9698 30.1201C14.9498 30.1201 14.9198 30.1201 14.8998 30.1201C14.8598 30.1201 14.8198 30.1201 14.7898 30.1301C11.4798 30.5301 8.88976 33.0102 8.24976 36.1702C6.40976 33.7002 5.41976 30.7301 5.41976 27.6101C5.41976 19.6701 11.8798 13.2101 19.8198 13.2101Z" fill="#272525"></path>
  <path d="M56.1502 27.0698C62.8802 27.0698 68.3502 21.5999 68.3502 14.8699C68.3502 8.13987 62.8702 2.66992 56.1502 2.66992C49.4302 2.66992 43.9502 8.13987 43.9502 14.8699C43.9502 21.5999 49.4202 27.0698 56.1502 27.0698ZM56.1502 4.54993C61.8402 4.54993 66.4702 9.17987 66.4702 14.8699C66.4702 20.5599 61.8402 25.1898 56.1502 25.1898C50.4602 25.1898 45.8402 20.5599 45.8402 14.8699C45.8402 9.17987 50.4702 4.54993 56.1502 4.54993Z" fill="#272525"></path>
  <path d="M0.739723 27.61C0.739723 38.13 9.29973 46.7 19.8197 46.7C22.6497 46.7 25.4697 46.05 28.0297 44.83L31.7597 48.98C29.8697 51.36 28.9897 54.32 29.2997 57.41C29.8497 62.91 34.2297 67.29 39.7197 67.83C40.0997 67.87 40.4997 67.89 40.8997 67.89C44.1897 67.89 47.3397 66.4901 49.5497 64.0601C51.7897 61.5901 52.8397 58.39 52.5097 55.05C51.9597 49.55 47.5797 45.17 42.0797 44.62C39.7197 44.39 37.3097 44.8901 35.2197 46.0601L31.8897 42.36C36.2997 38.74 38.8997 33.31 38.8997 27.62C38.8997 26.12 38.7197 24.61 38.3497 23.13L42.8697 21.53C45.3797 26.54 50.4997 29.72 56.1397 29.72C64.3297 29.72 70.9897 23.06 70.9897 14.87C70.9897 6.68 64.3297 0.0200195 56.1397 0.0200195C47.9497 0.0200195 41.2897 6.68 41.2897 14.87C41.2897 15.64 41.3497 16.43 41.4797 17.21L36.7497 18.88C33.4797 12.56 26.9197 8.53003 19.7997 8.53003C9.27973 8.53003 0.719727 17.09 0.719727 27.61H0.739723ZM19.8197 10.41C26.4897 10.41 32.6197 14.3499 35.4297 20.4399C35.6297 20.8799 36.1397 21.1001 36.5997 20.9301L42.8897 18.71C43.3397 18.55 43.5997 18.08 43.4997 17.62C43.2997 16.7 43.1997 15.77 43.1997 14.86C43.1997 7.70999 49.0097 1.90002 56.1597 1.90002C63.3097 1.90002 69.1197 7.70999 69.1197 14.86C69.1197 22.01 63.3097 27.8199 56.1597 27.8199C50.9797 27.8199 46.3097 24.74 44.2497 19.97C44.0497 19.51 43.5397 19.29 43.0697 19.45L36.9097 21.63C36.4397 21.8 36.1797 22.3 36.3197 22.79C36.7897 24.38 37.0197 26 37.0197 27.61C37.0197 33.04 34.3797 38.22 29.9597 41.47C29.7397 41.63 29.6097 41.87 29.5797 42.13C29.5497 42.39 29.6397 42.66 29.8197 42.86L34.3397 47.89C34.6497 48.24 35.1697 48.3 35.5597 48.05C37.4397 46.83 39.6897 46.27 41.8997 46.49C46.4997 46.95 50.1797 50.62 50.6297 55.22C50.9097 58.02 50.0297 60.71 48.1497 62.78C46.2997 64.82 43.6597 65.99 40.8997 65.99C40.5597 65.99 40.2297 65.9699 39.8997 65.9399C35.2997 65.4899 31.6297 61.81 31.1697 57.21C30.8897 54.41 31.7797 51.7199 33.6197 49.6899C33.6497 49.6699 33.7097 49.61 33.7297 49.58C34.0397 49.22 34.0397 48.68 33.7297 48.33L28.9597 43.02C28.7797 42.82 28.5197 42.71 28.2597 42.71C28.1097 42.71 27.9597 42.7499 27.8197 42.8199C25.3297 44.1399 22.6397 44.8 19.8297 44.8C10.3497 44.8 2.62972 37.08 2.62972 27.6C2.62972 18.12 10.3397 10.4 19.8297 10.4L19.8197 10.41Z" fill="#272525"></path>
</svg>
