<?xml version="1.0" encoding="UTF-8"?>
<svg xmlns="http://www.w3.org/2000/svg" width="65" height="53" viewBox="0 0 65 53" fill="none">
  <path d="M48.3002 0.22998L42.8902 5.64001C42.6202 5.60001 42.3502 5.58006 42.0702 5.56006C40.1302 4.78006 36.6802 4.21997 32.6402 7.33997L32.5502 7.42004L31.2202 8.75C26.2202 5.36 22.2502 7.44994 21.1302 8.18994L16.1502 3.20996L0.450195 18.91L6.40021 24.86C6.45021 27.53 7.39017 30.26 9.24017 33.03C10.0002 34.17 10.8902 35.2199 11.8502 36.1899C13.0802 37.4299 14.3202 38.66 15.5502 39.9C14.2102 41.85 14.7902 43.47 16.1802 44.92C17.6302 46.43 18.9602 46.61 20.9302 46.04C20.9502 46.04 20.9702 46.0401 20.9802 46.0601C22.3902 48.1701 23.6902 49.19 25.0902 49.3C25.6702 49.8601 26.2502 50.44 26.8302 51C28.5602 52.67 31.2002 53.05 33.2902 51.85C34.1902 51.33 34.3502 50.91 34.8102 50.17C38.3402 53.14 40.7002 53.19 43.4802 49.03C43.4902 49.01 43.5102 49.01 43.5302 49.01C45.4902 49.58 46.8302 49.4 48.2802 47.89C49.7502 46.35 50.3202 44.64 48.6702 42.54C48.6602 42.52 48.2302 41.97 48.2502 41.97C49.4302 42.01 50.3602 41.26 50.8702 40.59C52.2402 38.82 52.1502 36.97 50.6902 35.14C51.3302 34.5 51.9802 33.86 52.6202 33.21C53.5802 32.24 54.4702 31.19 55.2302 30.05C57.0702 27.29 58.0202 24.55 58.0702 21.88L64.0202 15.9301L48.3202 0.22998H48.3002ZM12.8002 33.9C10.9902 31.99 9.64017 29.89 9.05017 27.5C8.92017 26.97 8.8202 26.42 8.7702 25.86C8.7302 25.4 8.71016 24.93 8.73016 24.46L2.69019 18.42L15.6702 5.43994L19.8302 9.59998L20.1002 9.87L20.0802 9.91003L22.0902 10.08L22.2202 9.76001C23.0102 9.22001 26.3002 7.38999 30.6902 10.74L36.5002 16.58C36.7902 16.87 36.9502 17.2601 36.9502 17.6801C36.9502 18.1001 36.7902 18.49 36.4902 18.78L36.1102 19.16C35.5002 19.77 34.5102 19.76 33.9102 19.16L27.9702 13.1899L26.5202 14.2L28.1302 16.08L28.8302 16.78C28.1502 17.46 27.4602 18.15 26.7802 18.83C26.6102 19 26.5102 19.18 26.4702 19.37C26.4402 19.41 26.4002 19.44 26.3702 19.48C22.3802 23.48 18.3702 27.47 14.3802 31.48C13.5802 32.28 13.0602 33.09 12.8002 33.9ZM32.0702 50.09C31.6102 50.53 31.1402 50.79 30.4502 50.74C29.5002 50.67 28.8402 49.94 28.3802 49.49C28.1002 49.21 27.8202 48.93 27.5402 48.66C28.2002 48.31 28.8902 47.8199 29.6402 47.1899C30.1002 47.9199 30.2602 48.35 31.1602 48.87C31.5602 49.1 31.9902 49.27 32.4302 49.39C32.3602 49.68 32.2402 49.94 32.0702 50.1V50.09ZM40.6302 49.29C39.7402 50.34 38.7202 50.43 37.4202 49.22C37.2202 49.03 37.0202 48.84 36.8202 48.65C37.1102 48.46 37.3802 48.25 37.6302 48.01C38.3802 47.29 39.1102 46.56 39.8602 45.84C39.9402 45.92 40.0202 46 40.1002 46.08C41.3302 47.31 41.4902 48.3 40.6402 49.29H40.6302ZM46.8402 46.04C45.9402 47.27 44.5602 47.2999 43.3302 46.0699C42.7202 45.4599 42.1102 44.85 41.4902 44.23C42.5002 43.24 43.5102 42.26 44.5202 41.27C45.0902 41.84 45.6602 42.41 46.2302 42.98C47.3302 44.08 47.5102 45.12 46.8402 46.04ZM49.3602 38.76C48.9002 39.9 47.5402 40.45 46.4602 39.85C46.3502 39.79 46.2502 39.73 46.1502 39.66C47.1202 38.7 48.0902 37.72 49.0502 36.75C49.4702 37.31 49.6802 37.92 49.3502 38.76H49.3602ZM55.7302 21.48C55.7402 21.96 55.7302 22.43 55.6902 22.88C55.6402 23.44 55.5402 23.99 55.4102 24.52C54.8102 26.92 53.4502 29.03 51.6302 30.95C49.1602 33.54 46.5802 36.0201 44.0502 38.5601C41.3902 41.2201 38.7502 43.88 36.0702 46.52C35.6102 46.97 34.9502 47.7 34.0002 47.77C33.3102 47.82 32.8402 47.56 32.3802 47.12C31.9702 46.73 31.8302 45.74 31.9902 45.13C32.1602 44.46 32.7502 43.86 33.2702 43.33C34.4802 42.09 35.7102 40.87 36.9402 39.65C37.5402 39.05 38.1302 38.45 38.7202 37.85C39.3402 37.21 41.1702 35.84 40.1502 34.88C39.2102 34 37.8602 35.7 37.3002 36.27C36.7002 36.87 36.1102 37.4701 35.5002 38.0601C32.6902 40.8001 29.9202 43.59 27.0402 46.26C25.7402 47.47 24.7202 47.38 23.8302 46.33C22.9902 45.34 23.1502 44.35 24.3702 43.12C27.5502 39.93 30.7402 36.7501 33.9302 33.5601C34.3802 33.1101 34.7602 32.82 34.8402 32.14C34.9002 31.63 34.7202 31.19 34.2002 31.11C33.3202 30.98 32.9402 31.31 32.3802 31.88C28.6302 35.63 24.8902 39.38 21.1302 43.12C19.9002 44.35 18.5202 44.32 17.6202 43.09C16.9502 42.17 17.1302 41.13 18.2302 40.03C22.0302 36.21 25.8502 32.4 29.6702 28.6C30.2902 27.98 30.7802 27.2899 30.0202 26.5699C29.2902 25.8899 28.6602 26.49 28.1102 27.05C25.1802 29.99 22.2402 32.93 19.3002 35.86C18.9102 36.25 18.5002 36.65 18.0202 36.91C16.9402 37.5 15.5802 36.9599 15.1202 35.8199C14.6502 34.6499 15.2502 33.9 16.0002 33.16C20.8702 28.3 25.7502 23.45 30.5802 18.55L32.5802 20.5601C33.2602 21.2401 34.1502 21.58 35.0502 21.58C35.9402 21.58 36.8302 21.2399 37.5102 20.5699L37.8902 20.1899C38.5502 19.5399 38.9102 18.66 38.9102 17.73C38.9102 16.85 38.5902 16.04 38.0002 15.39L33.5702 10.92L32.7002 10.05L33.8802 8.85999C35.7102 7.46999 37.3402 6.98003 38.6902 6.91003C41.1502 6.69003 43.3302 7.97998 43.3302 7.97998L44.6402 6.67004L48.8002 2.51001L61.7802 15.49L55.7402 21.53L55.7302 21.48Z" fill="#272525"></path>
</svg>
