<?xml version="1.0" encoding="UTF-8"?>
<svg xmlns="http://www.w3.org/2000/svg" width="75" height="67" viewBox="0 0 75 67" fill="none">
  <path d="M35.47 47.8298C34.36 48.9498 33.2901 50.0299 32.2101 51.0999C31.4701 51.8399 31.14 51.8399 30.42 51.1099C20.72 41.3999 11.0101 31.6999 1.31006 21.9899C0.560059 21.2399 0.560059 20.9598 1.31006 20.2098C7.55006 13.9798 13.7801 7.73988 20.0201 1.49988C20.7101 0.80988 21.0401 0.8099 21.7601 1.5199C29.2201 8.9799 36.6801 16.4399 44.1301 23.9099C44.5401 24.3299 44.9401 24.4599 45.5201 24.4199C47.1801 24.2899 48.8601 24.0899 50.5201 24.1799C53.3701 24.3199 55.6801 25.6699 57.2801 28.0199C62.8101 36.1699 68.3 44.3599 73.8 52.5299C74.2401 53.1899 74.2201 53.4699 73.6501 54.0299C69.7501 57.9299 65.8401 61.8299 61.9301 65.7299C61.3601 66.2999 61.1101 66.3098 60.4401 65.8398C54.4701 61.6498 48.5201 57.4299 42.5301 53.2599C40.9701 52.1799 39.3201 51.2299 37.6901 50.2699C36.5601 49.6099 36.24 49.3399 35.47 47.8099V47.8298ZM49.3401 31.5898C39.8401 22.0898 30.3501 12.5999 20.8801 3.13989C14.9001 9.11989 8.88006 15.1298 2.94006 21.0698C12.4001 30.5298 21.9001 40.0298 31.3101 49.4398C34.3301 46.4298 37.4001 43.3599 40.4901 40.2799C40.3901 40.1899 40.25 40.0698 40.11 39.9498C36.44 36.8998 32.7601 33.8399 29.0901 30.7899C27.3401 29.3299 26.9701 26.9599 28.2001 25.1499C29.4401 23.3199 31.8201 22.7899 33.8201 23.9099C38.5401 26.5599 43.2601 29.1999 47.9601 31.8799C48.6001 32.2399 48.9801 32.2299 49.3301 31.5999L49.3401 31.5898ZM50.0801 33.0299C51.1401 33.6299 51.97 34.0898 52.79 34.5698C53.25 34.8398 53.3701 35.2698 53.1301 35.7098C52.8801 36.1698 52.45 36.2399 51.98 35.9999C51.81 35.9099 51.65 35.8199 51.48 35.7199C48.88 34.2599 46.2801 32.7998 43.6901 31.3398C40.1701 29.3598 36.6501 27.3799 33.1401 25.3999C31.9301 24.7199 30.7301 24.8398 29.8801 25.7098C28.7601 26.8698 28.9301 28.4899 30.3101 29.6299C35.5401 33.9799 40.7801 38.3399 46.0201 42.6799C47.3201 43.7599 48.2701 45.0799 48.9001 46.6399C49.5801 48.2999 50.2401 49.9699 50.9301 51.6299C52.0401 54.2999 53.9701 56.1099 56.7101 57.0499C57.9101 57.4599 59.1101 57.8699 60.3101 58.2899C60.9201 58.4999 61.1501 58.8999 60.9901 59.3799C60.8301 59.8699 60.4 60.0499 59.8 59.8499C58.44 59.3899 57.07 58.9498 55.73 58.4398C53.08 57.4398 51.1201 55.6699 49.8301 53.1499C49.6001 52.6999 49.4101 52.2399 49.2001 51.7999C47.9401 52.2899 46.7101 52.7699 45.4401 53.2699C50.6301 56.9199 55.8401 60.5899 60.9501 64.1799C64.7101 60.4299 68.4201 56.7399 72.1501 53.0199C70.8301 51.0599 69.47 49.0399 68.11 47.0299C64.08 41.0499 60.0701 35.0599 56.0201 29.0999C55.5301 28.3799 54.8701 27.7398 54.1801 27.1998C52.3601 25.7798 50.2301 25.6199 48.0201 25.8799C47.4901 25.9399 46.9601 25.9799 46.3301 26.0299C46.5101 26.2299 46.6001 26.3498 46.7001 26.4498C48.1501 27.8998 49.6 29.3499 51.05 30.7999C51.58 31.3299 51.59 31.7399 51.05 32.2699C50.8 32.5199 50.4901 32.7199 50.0901 33.0299H50.0801ZM48.5201 50.1099C48.3001 49.5599 48.0401 49.0298 47.8701 48.4598C47.6701 47.7898 47.3201 47.5499 46.6301 47.7599C46.3101 47.8599 45.9601 47.8499 45.6301 47.8999C43.7501 48.2099 42.0301 47.8299 40.4601 46.7499C40.0401 46.4599 39.6101 46.1898 39.1801 45.9398C38.6501 45.6398 37.7401 45.6299 37.4301 45.8999C37.0601 46.2299 36.9301 47.0899 37.2801 47.6799C37.5201 48.0799 37.8801 48.4498 38.2701 48.6898C39.1201 49.1998 40.0201 49.6198 40.9001 50.0798C41.1801 50.2298 41.4801 50.3499 41.7401 50.5199C44.0701 52.0699 46.2901 51.5999 48.5201 50.1099ZM39.36 44.0199C41.54 45.7199 43.7801 47.0599 46.7001 45.9899C45.5101 44.0399 43.53 42.9299 41.97 41.4799C41.05 42.3799 40.2 43.1999 39.36 44.0299V44.0199Z" fill="black"></path>
  <path d="M49.3402 31.5898C48.9902 32.2198 48.6002 32.2399 47.9702 31.8699C43.2702 29.1799 38.5502 26.5499 33.8302 23.8999C31.8302 22.7799 29.4502 23.3099 28.2102 25.1399C26.9802 26.9499 27.3502 29.3199 29.1002 30.7799C32.7702 33.8399 36.4502 36.8898 40.1202 39.9398C40.2602 40.0598 40.4002 40.1899 40.5002 40.2699C37.4102 43.3499 34.3402 46.4199 31.3202 49.4299C21.9102 40.0199 12.4102 30.5199 2.9502 21.0599C8.8902 15.1199 14.9102 9.09988 20.8902 3.12988C30.3502 12.5899 39.8402 22.0798 49.3502 31.5798L49.3402 31.5898ZM14.4602 28.0299C14.9302 27.5899 15.3302 27.2699 15.6702 26.8899C16.0002 26.5099 16.3102 26.0999 16.5502 25.6599C17.0902 24.6399 16.9302 23.5798 16.1702 22.7198C15.2002 21.6198 13.7202 21.3899 12.4702 22.3599C11.3502 23.2299 10.3802 24.2998 9.41016 25.2098C11.2702 27.0898 13.0602 28.8898 14.7602 30.5898C15.1702 30.2598 15.6002 29.8998 16.1202 29.4698C15.5502 28.9698 15.0602 28.5399 14.4702 28.0199L14.4602 28.0299ZM19.5002 26.2499C19.6902 25.9799 19.7602 25.7998 19.8902 25.7098C20.6602 25.1798 20.8302 24.5499 20.2802 23.7599C19.9902 23.3499 20.1302 23.0499 20.4902 22.7399C20.8902 22.3999 21.3002 22.0399 21.6102 21.6199C22.2302 20.7899 22.9002 20.5199 23.8302 21.1299C23.9702 21.2299 24.3002 21.2199 24.4402 21.1199C24.8402 20.8299 25.2002 20.4698 25.6402 20.0698C25.2802 19.9198 25.0902 19.8399 24.9002 19.7599C22.8702 18.9799 20.8402 18.2099 18.8102 17.4299C17.5902 16.9599 17.5802 16.9599 16.7202 17.9799C16.6002 18.1199 16.5202 18.4198 16.5902 18.5798C17.5202 21.0698 18.4802 23.5499 19.5202 26.2399L19.5002 26.2499ZM28.5302 17.0499C26.4402 15.9899 26.1502 13.9799 25.7102 12.0399C25.6902 11.9399 25.6602 11.8299 25.6302 11.7299C25.4602 11.0499 25.2902 10.3699 25.1102 9.67993C25.0402 9.64993 24.9802 9.60983 24.9102 9.57983C24.7302 9.81983 24.5902 10.0999 24.3702 10.2799C23.9602 10.6199 23.8702 10.9799 24.0202 11.4899C24.2902 12.3799 24.4902 13.2898 24.7102 14.1898C24.7502 14.3398 24.7402 14.4899 24.7502 14.6799C23.5602 14.3899 22.4602 14.0999 21.3502 13.8599C21.1602 13.8199 20.8802 13.8598 20.7202 13.9698C20.3302 14.2498 19.9802 14.5899 19.4802 15.0299C20.6802 15.3299 21.6502 15.6299 22.6402 15.7999C24.4102 16.0899 25.9402 16.7599 27.0202 18.2499C27.0502 18.2999 27.1202 18.3099 27.1902 18.3599C27.6002 17.9599 27.9902 17.5699 28.5202 17.0499H28.5302Z" fill="white"></path>
  <path d="M50.08 33.0299C50.48 32.7199 50.7799 32.5199 51.0399 32.2699C51.5699 31.7399 51.5699 31.3399 51.0399 30.7999C49.5899 29.3499 48.14 27.8998 46.69 26.4498C46.59 26.3498 46.5 26.2299 46.32 26.0299C46.95 25.9799 47.48 25.9399 48.01 25.8799C50.21 25.6299 52.3499 25.7798 54.1699 27.1998C54.8599 27.7398 55.52 28.3798 56.01 29.0998C60.07 35.0598 64.0799 41.0499 68.0999 47.0299C69.4599 49.0499 70.82 51.0599 72.14 53.0199C68.41 56.7399 64.7 60.4299 60.94 64.1799C55.83 60.5899 50.6199 56.9199 45.4299 53.2699C46.6999 52.7699 47.92 52.2999 49.19 51.7999C49.39 52.2399 49.59 52.6999 49.82 53.1499C51.11 55.6599 53.0799 57.4398 55.7199 58.4398C57.0599 58.9498 58.4299 59.3898 59.7899 59.8498C60.3899 60.0498 60.8199 59.8699 60.9799 59.3799C61.1399 58.8999 60.9099 58.5099 60.2999 58.2899C59.0999 57.8699 57.9 57.4699 56.7 57.0499C53.97 56.1099 52.0399 54.2899 50.9199 51.6299C50.2299 49.9699 49.57 48.2999 48.89 46.6399C48.25 45.0899 47.3 43.7599 46.01 42.6799C40.77 38.3299 35.5399 33.9799 30.2999 29.6299C28.9299 28.4899 28.7499 26.8698 29.8699 25.7098C30.7199 24.8298 31.92 24.7099 33.13 25.3999C36.65 27.3799 40.1699 29.3598 43.6799 31.3398C46.2799 32.7998 48.8699 34.2598 51.4699 35.7198C51.6399 35.8098 51.7999 35.9099 51.9699 35.9999C52.4399 36.2399 52.8699 36.1698 53.1199 35.7098C53.3599 35.2698 53.24 34.8398 52.78 34.5698C51.96 34.0898 51.13 33.6299 50.07 33.0299H50.08Z" fill="white"></path>
  <path d="M48.5202 50.1099C46.3002 51.5999 44.0702 52.0699 41.7402 50.5199C41.4802 50.3499 41.1802 50.2299 40.9002 50.0799C40.0202 49.6199 39.1202 49.1999 38.2702 48.6899C37.8802 48.4499 37.5102 48.08 37.2802 47.68C36.9302 47.09 37.0602 46.2299 37.4302 45.8999C37.7402 45.6299 38.6502 45.6299 39.1802 45.9399C39.6202 46.1899 40.0502 46.4599 40.4602 46.7499C42.0302 47.8399 43.7502 48.2099 45.6302 47.8999C45.9602 47.8499 46.3102 47.8599 46.6302 47.7599C47.3202 47.5499 47.6702 47.7899 47.8702 48.4599C48.0302 49.0199 48.3002 49.5599 48.5202 50.1099Z" fill="white"></path>
  <path d="M39.3599 44.0198C40.2099 43.1898 41.0498 42.3697 41.9698 41.4697C43.5298 42.9297 45.5099 44.0297 46.6999 45.9797C43.7799 47.0597 41.5399 45.7098 39.3599 44.0098V44.0198Z" fill="white"></path>
  <path d="M14.4599 28.03C15.0599 28.55 15.5499 28.9799 16.1099 29.4799C15.5899 29.9099 15.1499 30.2699 14.7499 30.5999C13.0599 28.8999 11.2699 27.0999 9.3999 25.2199C10.3699 24.2999 11.3399 23.24 12.4599 22.37C13.7099 21.4 15.1899 21.6199 16.1599 22.7299C16.9199 23.5899 17.0799 24.65 16.5399 25.67C16.3099 26.11 15.9899 26.52 15.6599 26.9C15.3299 27.28 14.9299 27.6 14.4499 28.04L14.4599 28.03ZM13.5999 26.9599C14.0199 26.5299 14.4699 26.11 14.8499 25.64C15.3399 25.02 15.2899 24.37 14.7899 23.87C14.2599 23.35 13.6399 23.28 13.0199 23.78C12.5299 24.17 12.1199 24.66 11.6599 25.12C12.2999 25.73 12.9199 26.3199 13.5999 26.9599Z" fill="black"></path>
  <path d="M19.5002 26.2498C18.4602 23.5598 17.5002 21.0798 16.5702 18.5898C16.5102 18.4298 16.5802 18.1298 16.7002 17.9898C17.5602 16.9698 17.5702 16.9798 18.7902 17.4398C20.8202 18.2098 22.8502 18.9899 24.8802 19.7699C25.0702 19.8399 25.2602 19.9298 25.6202 20.0798C25.1702 20.4798 24.8202 20.8399 24.4202 21.1299C24.2802 21.2299 23.9602 21.2399 23.8102 21.1399C22.8902 20.5299 22.2102 20.7899 21.5902 21.6299C21.2802 22.0499 20.8802 22.4098 20.4702 22.7498C20.1102 23.0498 19.9702 23.3499 20.2602 23.7699C20.8102 24.5599 20.6402 25.1898 19.8702 25.7198C19.7402 25.8098 19.6702 25.9899 19.4802 26.2599L19.5002 26.2498ZM18.2602 18.8598C18.7102 19.9498 19.0902 20.8598 19.4602 21.7298C20.0602 21.1698 20.6102 20.6598 21.2202 20.0798C20.2602 19.6798 19.3502 19.2998 18.2602 18.8598Z" fill="black"></path>
  <path d="M28.5303 17.0499C28.0003 17.5699 27.6103 17.9599 27.2003 18.3599C27.1303 18.3199 27.0603 18.2999 27.0303 18.2499C25.9503 16.7599 24.4203 16.0899 22.6503 15.7999C21.6603 15.6399 20.7002 15.3299 19.4902 15.0299C19.9902 14.5899 20.3402 14.2498 20.7302 13.9698C20.8902 13.8598 21.1602 13.8199 21.3602 13.8599C22.4702 14.1099 23.5703 14.3899 24.7603 14.6799C24.7503 14.4899 24.7602 14.3298 24.7202 14.1898C24.5002 13.2898 24.3003 12.3799 24.0303 11.4899C23.8803 10.9799 23.9602 10.6199 24.3802 10.2799C24.6002 10.0999 24.7402 9.81983 24.9202 9.57983C24.9902 9.60983 25.0502 9.64993 25.1202 9.67993C25.2902 10.3599 25.4603 11.0399 25.6403 11.7299C25.6703 11.8299 25.6902 11.9299 25.7202 12.0399C26.1602 13.9699 26.4502 15.9899 28.5402 17.0499H28.5303Z" fill="black"></path>
  <path d="M13.6002 26.9597C12.9302 26.3197 12.3002 25.7298 11.6602 25.1198C12.1202 24.6598 12.5302 24.1698 13.0202 23.7798C13.6402 23.2798 14.2602 23.3498 14.7902 23.8698C15.2902 24.3698 15.3502 25.0298 14.8502 25.6398C14.4702 26.1198 14.0102 26.5297 13.6002 26.9597Z" fill="white"></path>
  <path d="M18.2603 18.8599C19.3403 19.3099 20.2502 19.6798 21.2202 20.0798C20.6102 20.6498 20.0603 21.1599 19.4603 21.7299C19.1003 20.8499 18.7203 19.9499 18.2603 18.8599Z" fill="white"></path>
</svg>
