<?xml version="1.0" encoding="UTF-8"?>
<svg xmlns="http://www.w3.org/2000/svg" width="55" height="55" viewBox="0 0 55 55" fill="none">
  <path d="M3.43979 27.3599C3.40979 39.6699 13.0898 50.4099 25.0898 51.3499C38.1398 52.3799 49.2899 43.81 51.3099 31.15C52.1999 25.59 51.1899 20.3599 48.4199 15.4599C48.2999 15.2499 48.1799 15.0499 48.0599 14.8399C47.6199 14.0799 47.6399 13.3499 48.4199 12.8599C49.2099 12.3699 49.8998 12.6699 50.3298 13.4399C50.9698 14.5899 51.6399 15.7299 52.1499 16.9399C59.2199 33.6299 48.0999 52.27 30.0599 54.02C15.8099 55.4 2.80985 45.12 0.99985 31.04C-0.86015 16.6 8.80986 3.42997 23.0099 1.02997C29.3099 -0.0400326 35.2299 1.05998 40.7899 4.16998C40.9999 4.28998 41.2099 4.40997 41.4099 4.52997C42.1899 5.00997 42.5899 5.66997 42.0499 6.52997C41.5499 7.30997 40.8499 7.23993 40.0599 6.86993C38.1899 5.98993 36.3499 4.96994 34.3899 4.37994C18.9799 -0.260057 3.48979 11.2799 3.43979 27.3599Z" fill="black"></path>
  <path d="M16.5398 39.8599C15.9198 40.3599 15.3298 40.84 14.7498 41.3C16.8798 44.04 23.1798 46.6599 26.6098 46.2599V43.9699H28.3798C28.4198 44.7599 28.4498 45.5 28.4898 46.41C33.0598 46.19 36.9097 44.51 40.3397 41.52C39.7197 40.86 39.1797 40.29 38.5797 39.65C39.0297 39.26 39.4398 38.91 39.8898 38.52C40.4398 39.04 40.9998 39.5799 41.6498 40.1999C44.6298 36.7899 46.3098 32.9499 46.5498 28.3699C45.6898 28.3199 44.9197 28.2799 44.0897 28.2299V26.55C44.8897 26.51 45.6698 26.48 46.5498 26.43C46.4898 23.65 45.7098 21.1399 44.5498 18.7099C44.3398 18.2699 44.1098 17.6799 44.2398 17.2699C44.3598 16.8799 44.9698 16.3299 45.2998 16.3799C45.8298 16.4499 46.5198 16.83 46.7798 17.28C48.2798 19.96 49.0698 22.8799 49.2698 25.9499C50.0498 37.7099 41.5698 47.6499 29.5598 49.0699C18.5798 50.3699 7.88975 42.28 6.09975 31.05C4.72975 22.44 7.56984 15.2099 14.5598 9.98992C21.4698 4.82992 29.0697 4.27995 36.9597 7.76995C37.2097 7.87995 37.4597 8.01996 37.7097 8.14996C38.5697 8.56996 38.9097 9.25992 38.4597 10.1099C38.0297 10.9199 37.2898 10.96 36.4998 10.54C34.0298 9.24997 31.4198 8.46992 28.4798 8.35992V10.8199H26.7197C26.6797 10.0599 26.6397 9.27993 26.5897 8.36993C22.0497 8.59993 18.2098 10.2599 14.7498 13.2599C15.3298 13.8799 15.8698 14.45 16.5498 15.17C16.1098 15.48 15.6598 15.79 15.1198 16.18C14.6998 15.78 14.1397 15.2499 13.4397 14.5799C10.4497 17.9699 8.78981 21.82 8.52981 26.43C9.39981 26.47 10.1798 26.51 10.9998 26.55V28.2599H8.52981C8.74981 32.8899 10.4297 36.7399 13.4597 40.2399C14.0097 39.5299 14.4897 38.9099 15.0897 38.1199C15.6797 38.8099 16.0298 39.2299 16.5598 39.8499L16.5398 39.8599Z" fill="black"></path>
  <path d="M27.5198 25.5198C33.5598 19.4798 39.4497 13.5898 45.3397 7.69978C46.2697 6.76978 47.1998 5.83986 48.1298 4.90986C48.7598 4.26986 49.4797 3.94985 50.2197 4.64985C51.0097 5.38985 50.7098 6.13977 50.0298 6.81977C42.9198 13.9198 35.8197 21.0298 28.7097 28.1198C27.8697 28.9598 27.2097 28.9498 26.3497 28.0998C23.7397 25.5198 21.1598 22.9198 18.5598 20.3298C17.8798 19.6498 17.5897 18.8899 18.3597 18.1499C19.0697 17.4699 19.8097 17.7499 20.4597 18.3999C22.7797 20.7499 25.1098 23.0798 27.5298 25.5198H27.5198Z" fill="black"></path>
</svg>
