<?xml version="1.0" encoding="UTF-8"?>
<svg width="82px" height="82px" viewBox="0 0 82 82" version="1.1" xmlns="http://www.w3.org/2000/svg" xmlns:xlink="http://www.w3.org/1999/xlink">
    <title>facebook</title>
    <g id="Page-1" stroke="none" stroke-width="1" fill="none" fill-rule="evenodd">
        <g id="Home" transform="translate(-683.000000, -5823.000000)" fill-rule="nonzero">
            <g id="Group-2" transform="translate(517.229493, 5656.500000)">
                <g id="facebook" transform="translate(165.780273, 167.000000)">
                    <path d="M81.319961,40.6602 C81.319961,63.1102 63.119961,81.3198 40.659961,81.3198 C18.209961,81.3198 0,63.1202 0,40.6602 C0,18.2102 18.199961,0 40.659961,0 C63.109961,0 81.319961,18.2002 81.319961,40.6602 Z" id="Path" fill="#383838" opacity="0"></path>
                    <path d="M52.709461,37.5 L52.029461,42.9399 C51.919461,43.8499 51.149461,44.5298 50.229461,44.5298 L41.419461,44.5298 L41.419461,67.27 C40.489461,67.35 39.549461,67.3999 38.599461,67.3999 C36.469461,67.3999 34.389561,67.1898 32.389561,66.7798 L32.389561,44.5298 L25.609461,44.5298 C24.989461,44.5298 24.479461,44.0199 24.479461,43.3999 L24.479461,36.5898 C24.479461,35.9698 24.989461,35.46 25.609461,35.46 L32.389561,35.46 L32.389561,25.25 C32.389561,18.99 37.449461,13.9102 43.679461,13.9102 L51.589461,13.9102 C52.209461,13.9102 52.719461,14.42 52.719461,15.04 L52.719461,21.8501 C52.719461,22.4701 52.209461,22.98 51.589461,22.98 L45.939461,22.98 C43.449461,22.98 41.419461,25.01 41.419461,27.52 L41.419461,35.46 L50.909461,35.46 C51.999461,35.46 52.839461,36.42 52.709461,37.5 Z" id="Path" fill="#FFFFFF"></path>
                </g>
            </g>
        </g>
    </g>
</svg>