<?xml version="1.0" encoding="UTF-8"?>
<svg xmlns="http://www.w3.org/2000/svg" width="56" height="56" viewBox="0 0 56 56" fill="none">
  <path d="M25 0C25.97 0.14 26.94 0.250054 27.9 0.430054C32.13 1.22005 35.8401 3.06003 39.0601 5.91003C42.7101 9.15003 45.23 13.12 46.34 17.87C48.05 25.14 46.64 31.8099 42.17 37.8199C42 38.0499 41.83 38.28 41.54 38.67C41.73 38.79 41.95 38.88 42.1 39.03C46.41 43.33 50.72 47.65 55.03 51.95C55.69 52.61 56.07 53.34 55.8 54.3C55.3801 55.8 53.62 56.38 52.39 55.42C52.19 55.26 52.01 55.08 51.83 54.9C47.58 50.66 43.34 46.41 39.1 42.17C38.93 42 38.8 41.81 38.61 41.58C38.3 41.81 38.0501 41.99 37.8101 42.17C33.2701 45.64 28.1201 47.27 22.4301 47.01C16.0001 46.71 10.5699 44.11 6.18994 39.38C2.93994 35.86 0.99 31.71 0.25 26.99C0.15 26.33 0.08 25.67 0 25C0 24.02 0 23.04 0 22.05C0.03 21.88 0.0699756 21.7 0.0999756 21.53C0.309976 20.26 0.44 18.97 0.75 17.72C1.91 13.09 4.31999 9.21002 7.87 6.02002C11.12 3.09002 14.9 1.21004 19.2 0.420044C20.14 0.250044 21.1 0.14 22.05 0C23.03 0 24.01 0 25 0ZM42.6899 23.52C42.6899 12.97 34.09 4.36998 23.54 4.34998C13 4.32998 4.39999 12.92 4.35999 23.49C4.31999 34.03 12.99 42.6999 23.54 42.6899C34.1 42.6699 42.6899 34.07 42.6899 23.52Z" fill="black"></path>
  <path d="M27.9398 27.2999C28.5498 26.6499 29.0898 26.0099 29.7098 25.4499C30.7398 24.5099 32.3198 25.0399 32.5898 26.3899C32.7198 27.0399 32.4799 27.5699 32.0299 28.0199C31.4899 28.5599 30.9298 29.0799 30.3298 29.6599C30.6998 29.9599 31.0198 30.2199 31.3998 30.5199C31.4298 30.4899 31.5599 30.3799 31.6799 30.2499C32.4699 29.4699 33.2399 28.6699 34.0399 27.8999C34.7699 27.1999 35.8098 27.1999 36.4898 27.8599C37.1898 28.5299 37.2098 29.6199 36.4898 30.3499C35.2098 31.6599 33.9098 32.9699 32.5898 34.2399C31.7398 35.0699 30.7798 35.0199 29.8998 34.1499C27.4498 31.7099 24.9998 29.27 22.5798 26.81C22.2598 26.49 22.0399 26.4699 21.6599 26.6699C19.0899 27.9799 15.9298 27.4899 13.7698 25.4699C11.6698 23.4999 11.0098 20.3898 12.1098 17.6998C13.2098 15.0198 15.9098 13.2699 18.7698 13.3799C22.5898 13.5199 25.5298 16.4899 25.5998 20.2799C25.6198 21.3999 25.3998 22.4899 24.8598 23.4799C24.6798 23.8199 24.6698 24.03 24.9698 24.31C25.9498 25.25 26.8998 26.2299 27.9398 27.2799V27.2999ZM18.6098 23.9199C20.5598 23.9199 22.1698 22.2799 22.1398 20.3599C22.1098 18.4299 20.5298 16.8599 18.6098 16.8499C16.6798 16.8399 15.0598 18.4499 15.0698 20.3899C15.0698 22.3399 16.6598 23.9199 18.6198 23.9199H18.6098Z" fill="black"></path>
</svg>
