<?xml version="1.0" encoding="UTF-8"?>
<svg width="82px" height="82px" viewBox="0 0 82 82" version="1.1" xmlns="http://www.w3.org/2000/svg" xmlns:xlink="http://www.w3.org/1999/xlink">
    <title>instagram</title>
    <g id="Page-1" stroke="none" stroke-width="1" fill="none" fill-rule="evenodd">
        <g id="Home" transform="translate(-695.000000, -5656.000000)" fill-rule="nonzero">
            <g id="Group-2" transform="translate(517.229493, 5656.500000)">
                <g id="instagram" transform="translate(178.220703, 0.000000)">
                    <path d="M81.320031,40.6602 C81.320031,63.1102 63.120031,81.3198 40.660031,81.3198 C18.210031,81.3198 0,63.1202 0,40.6602 C0,18.2102 18.200031,0 40.660031,0 C63.110031,0 81.320031,18.2002 81.320031,40.6602 Z" id="Path" fill="#383838" opacity="0"></path>
                    <path d="M51.699931,19.3301 L29.639931,19.3301 C23.959931,19.3301 19.339831,23.9399 19.339831,29.6299 L19.339831,51.6899 C19.339831,57.3699 23.949931,61.9902 29.639931,61.9902 L51.699931,61.9902 C57.379931,61.9902 61.999831,57.3799 61.999831,51.6899 L61.999831,29.6299 C61.999831,23.9499 57.389931,19.3301 51.699931,19.3301 Z M58.309931,50.9502 C58.309931,55.0102 55.019831,58.2998 50.959831,58.2998 L30.369831,58.2998 C26.309831,58.2998 23.019931,55.0102 23.019931,50.9502 L23.019931,30.3599 C23.019931,26.2999 26.309831,23.0098 30.369831,23.0098 L50.959831,23.0098 C55.019831,23.0098 58.309931,26.2999 58.309931,30.3599 L58.309931,50.9502 Z" id="Shape" fill="#FFFFFF"></path>
                    <path d="M40.690231,29.6299 C34.600231,29.6299 29.660131,34.5702 29.660131,40.6602 C29.660131,46.7502 34.600231,51.6899 40.690231,51.6899 C46.780231,51.6899 51.720131,46.7502 51.720131,40.6602 C51.720131,34.5702 46.780231,29.6299 40.690231,29.6299 Z M40.690231,48.0098 C36.640231,48.0098 33.340131,44.7102 33.340131,40.6602 C33.340131,36.6102 36.640231,33.3101 40.690231,33.3101 C44.740231,33.3101 48.040131,36.6102 48.040131,40.6602 C48.040131,44.7102 44.740231,48.0098 40.690231,48.0098 Z" id="Shape" fill="#FFFFFF"></path>
                    <path d="M52.450331,31.0996 C53.670831,31.0996 54.660231,30.1102 54.660231,28.8896 C54.660231,27.6691 53.670831,26.6797 52.450331,26.6797 C51.229731,26.6797 50.240231,27.6691 50.240231,28.8896 C50.240231,30.1102 51.229731,31.0996 52.450331,31.0996 Z" id="Path" fill="#FFFFFF"></path>
                </g>
            </g>
        </g>
    </g>
</svg>