<?xml version="1.0" encoding="UTF-8"?>
<svg xmlns="http://www.w3.org/2000/svg" width="56" height="68" viewBox="0 0 56 68" fill="none">
  <path d="M28.0098 54.85C28.1998 54.85 28.3998 54.85 28.5898 54.85C30.8998 54.85 33.2098 54.85 35.5298 54.85C36.4798 54.85 36.8098 54.5199 36.8598 53.5699C36.8598 53.3999 36.8598 53.22 36.8598 53.05C36.9398 49.71 37.6998 46.7401 40.1998 44.1801C44.8198 39.4401 46.2198 33.6601 44.2798 27.3101C40.8298 16.0301 27.1998 11.7 17.7698 18.79C9.46984 25.03 8.63982 37.27 16.0598 44.52C17.4298 45.86 18.3698 47.39 18.7098 49.23C18.9698 50.6 19.0598 52.01 19.1398 53.41C19.1998 54.51 19.4598 54.84 20.5598 54.84C23.0398 54.84 25.5298 54.84 28.0098 54.84V54.85ZM27.9098 61.1801C30.1598 61.1801 32.4098 61.2001 34.6498 61.1801C36.3298 61.1601 37.4798 59.87 37.3098 58.28C37.1598 56.97 36.0498 56.0701 34.4898 56.0601C30.1498 56.0501 25.7998 56.0601 21.4598 56.0601C21.0398 56.0601 20.5898 56.13 20.1898 56.27C19.0498 56.69 18.4298 57.87 18.6398 59.09C18.8298 60.25 19.8698 61.16 21.1098 61.17C23.3798 61.19 25.6498 61.17 27.9198 61.17L27.9098 61.1801ZM27.9298 67.4C29.4598 67.4 30.9998 67.4 32.5298 67.4C34.1298 67.39 35.2898 66.32 35.3198 64.86C35.3498 63.39 34.2098 62.28 32.5998 62.26C29.5098 62.24 26.4198 62.24 23.3398 62.26C21.7498 62.27 20.5898 63.42 20.6098 64.86C20.6398 66.32 21.7998 67.38 23.3998 67.39C24.9098 67.39 26.4198 67.39 27.9298 67.39V67.4ZM11.8698 5.79004C10.7398 5.81004 10.3498 6.69004 10.8898 7.54004C12.0798 9.44004 13.2998 11.33 14.5098 13.22C14.9098 13.84 15.4698 13.99 15.9898 13.66C16.5098 13.33 16.6598 12.72 16.2898 12.12C15.0798 10.18 13.8498 8.24997 12.5898 6.33997C12.3998 6.04997 12.0198 5.89003 11.8698 5.78003V5.79004ZM48.2598 22.39C48.6398 22.23 48.9098 22.14 49.1498 22.01C50.8998 21.07 52.6398 20.1301 54.3898 19.1801C54.6698 19.0301 54.9698 18.8799 55.2198 18.6899C55.6398 18.3799 55.7098 17.92 55.5298 17.47C55.3298 16.99 54.9098 16.8301 54.4098 16.9301C54.1798 16.9701 53.9598 17.0799 53.7598 17.1899C51.9198 18.1799 50.0698 19.17 48.2398 20.17C48.0298 20.28 47.7398 20.3899 47.6698 20.5699C47.5298 20.9199 47.3898 21.37 47.4898 21.7C47.5798 21.99 47.9998 22.17 48.2698 22.4L48.2598 22.39ZM8.55982 21.01C8.41982 20.86 8.20981 20.47 7.86981 20.28C5.95981 19.2 4.01984 18.16 2.07984 17.11C1.37984 16.73 0.749831 16.8699 0.449831 17.4399C0.149831 18.0099 0.339826 18.5 1.06983 18.9C2.17983 19.52 3.2998 20.12 4.4198 20.73C5.2898 21.2 6.1498 21.7 7.0398 22.14C7.8198 22.52 8.55981 22.08 8.54981 21.01H8.55982ZM45.8598 6.94995C45.5998 6.69995 45.3698 6.35994 45.0398 6.18994C44.5998 5.95994 44.1798 6.18995 43.9198 6.56995C42.6098 8.51995 41.2998 10.48 40.0098 12.45C39.6398 13.02 39.7898 13.6 40.2998 13.91C40.7898 14.21 41.2998 14.08 41.6798 13.51C42.9698 11.59 44.2498 9.66999 45.5198 7.73999C45.6498 7.54999 45.6998 7.30994 45.8498 6.93994L45.8598 6.94995Z" fill="white" stroke="black" stroke-width="0.5" stroke-miterlimit="10"></path>
  <path d="M28.2299 1C28.7999 1.34 29.02 1.83001 29.01 2.51001C28.98 4.63001 29.0099 6.73999 28.9799 8.85999C28.9799 9.21999 28.8499 9.67002 28.6099 9.90002C28.3999 10.1 27.9299 10.16 27.6199 10.09C27.1199 9.97997 26.94 9.54004 26.94 9.04004C26.94 7.61004 26.94 6.19001 26.94 4.76001C26.94 4.00001 26.97 3.24999 26.94 2.48999C26.9 1.80999 27.1299 1.32 27.7299 1H28.2499H28.2299Z" fill="black" stroke="black" stroke-width="0.5" stroke-miterlimit="10"></path>
  <path d="M28.0099 54.85C25.5299 54.85 23.0399 54.85 20.5599 54.85C19.4499 54.85 19.1999 54.52 19.1399 53.42C19.0599 52.02 18.9699 50.62 18.7099 49.24C18.3599 47.4 17.4299 45.86 16.0599 44.53C8.63986 37.28 9.46988 25.04 17.7699 18.8C27.1999 11.71 40.8299 16.0399 44.2799 27.3199C46.2199 33.6699 44.8199 39.4499 40.1999 44.1899C37.6999 46.7499 36.9398 49.7201 36.8598 53.0601C36.8598 53.2301 36.8598 53.41 36.8598 53.58C36.8198 54.52 36.4799 54.85 35.5299 54.86C33.2199 54.86 30.9099 54.86 28.5899 54.86C28.3999 54.86 28.1999 54.86 28.0099 54.86V54.85ZM34.7499 52.71C34.8699 51.67 34.9498 50.71 35.1098 49.75C35.5198 47.31 36.3799 45.0799 38.1899 43.3199C41.9499 39.6699 43.4699 35.25 42.7499 30.09C42.1399 25.7 39.8999 22.2299 36.1999 19.8199C29.8399 15.6699 21.8498 16.78 16.7198 22.4C11.4798 28.15 11.7698 37.5599 17.4098 42.9399C19.1498 44.5999 20.2199 46.59 20.6899 48.91C20.9399 50.15 21.0799 51.42 21.2699 52.71H34.7399H34.7499Z" fill="black" stroke="black" stroke-width="0.5" stroke-miterlimit="10"></path>
  <path d="M27.9099 61.18C25.6399 61.18 23.3699 61.2 21.0999 61.18C19.8599 61.17 18.8299 60.2599 18.6299 59.0999C18.4299 57.8799 19.0499 56.7 20.1799 56.28C20.5699 56.13 21.0199 56.0699 21.4499 56.0699C25.7899 56.0599 30.1399 56.0499 34.4799 56.0699C36.0399 56.0699 37.1499 56.98 37.2999 58.29C37.4799 59.89 36.33 61.1699 34.64 61.1899C32.39 61.2199 30.15 61.1899 27.9 61.1899L27.9099 61.18ZM27.9699 59.0799C30.0399 59.0799 32.1099 59.0799 34.1899 59.0799C34.3599 59.0799 34.5699 59.13 34.6999 59.06C34.9 58.95 35.0499 58.7499 35.2199 58.5899C35.0399 58.4099 34.8699 58.2199 34.6699 58.0699C34.5999 58.0199 34.4599 58.06 34.3499 58.06C30.0799 58.06 25.8 58.06 21.53 58.06C21.4 58.06 21.24 58.0199 21.15 58.0799C20.97 58.1899 20.6899 58.38 20.6999 58.5C20.7299 58.7 20.9299 58.92 21.1099 59.04C21.2499 59.13 21.4899 59.0799 21.6799 59.0799C23.7699 59.0799 25.87 59.0799 27.96 59.0799H27.9699Z" fill="black" stroke="black" stroke-width="0.5" stroke-miterlimit="10"></path>
  <path d="M27.9299 67.3999C26.4199 67.3999 24.91 67.3999 23.4 67.3999C21.8 67.3999 20.6299 66.3299 20.6099 64.8699C20.5799 63.4199 21.75 62.2799 23.34 62.2699C26.43 62.2499 29.5199 62.2499 32.5999 62.2699C34.2099 62.2799 35.35 63.3999 35.32 64.8699C35.29 66.3399 34.13 67.3999 32.53 67.4099C31 67.4099 29.4599 67.4099 27.9299 67.4099V67.3999ZM27.95 65.2699C28.99 65.2699 30.02 65.2699 31.06 65.2699C31.62 65.2699 32.1899 65.2998 32.7399 65.2298C32.9199 65.2098 33.0699 64.9199 33.2399 64.7499C33.0699 64.5899 32.9099 64.4099 32.7199 64.2799C32.6299 64.2199 32.47 64.2599 32.34 64.2599C29.42 64.2599 26.51 64.2599 23.59 64.2599C23.42 64.2599 23.21 64.2099 23.08 64.2899C22.92 64.3799 22.71 64.5698 22.7 64.7298C22.7 64.8898 22.8799 65.1098 23.0399 65.1998C23.1899 65.2898 23.4199 65.2599 23.6099 65.2599C25.0599 65.2599 26.51 65.2599 27.95 65.2599V65.2699Z" fill="black" stroke="black" stroke-width="0.5" stroke-miterlimit="10"></path>
  <path d="M11.87 5.79004C12.02 5.90004 12.4 6.05998 12.59 6.34998C13.85 8.25998 15.08 10.19 16.29 12.13C16.66 12.72 16.51 13.34 15.99 13.67C15.47 14 14.91 13.85 14.51 13.23C13.29 11.34 12.08 9.46005 10.89 7.55005C10.35 6.69005 10.75 5.81005 11.87 5.80005V5.79004Z" fill="black" stroke="black" stroke-width="0.5" stroke-miterlimit="10"></path>
  <path d="M48.2597 22.39C47.9897 22.17 47.5697 21.9799 47.4797 21.6899C47.3797 21.3599 47.5196 20.9201 47.6596 20.5601C47.7296 20.3801 48.0197 20.28 48.2297 20.16C50.0697 19.16 51.9097 18.1701 53.7497 17.1801C53.9597 17.0701 54.1797 16.96 54.3997 16.92C54.8997 16.82 55.3297 16.98 55.5197 17.46C55.6997 17.91 55.6397 18.3701 55.2097 18.6801C54.9497 18.8701 54.6597 19.02 54.3797 19.17C52.6397 20.12 50.8897 21.06 49.1397 22C48.8997 22.13 48.6297 22.22 48.2497 22.38L48.2597 22.39Z" fill="black" stroke="black" stroke-width="0.5" stroke-miterlimit="10"></path>
  <path d="M8.55957 21.0099C8.56957 22.0799 7.82956 22.5299 7.04956 22.1399C6.15956 21.6999 5.29957 21.1999 4.42957 20.7299C3.30957 20.1199 2.18959 19.5199 1.07959 18.8999C0.349592 18.4999 0.159597 18.0098 0.459597 17.4398C0.759597 16.8698 1.3896 16.7299 2.0896 17.1099C4.0296 18.1499 5.95958 19.1899 7.87958 20.2799C8.20958 20.4699 8.42958 20.8599 8.56958 21.0099H8.55957Z" fill="black" stroke="black" stroke-width="0.5" stroke-miterlimit="10"></path>
  <path d="M45.8597 6.94995C45.7097 7.31995 45.6498 7.56 45.5298 7.75C44.2598 9.68 42.9798 11.6 41.6898 13.52C41.3098 14.09 40.7898 14.22 40.3098 13.92C39.7998 13.61 39.6498 13.03 40.0198 12.46C41.3098 10.49 42.6098 8.53996 43.9298 6.57996C44.1898 6.18996 44.6098 5.96995 45.0498 6.19995C45.3698 6.36995 45.5998 6.70996 45.8698 6.95996L45.8597 6.94995Z" fill="black" stroke="black" stroke-width="0.5" stroke-miterlimit="10"></path>
  <path d="M27.9699 59.08C25.8799 59.08 23.7799 59.08 21.6899 59.08C21.4999 59.08 21.2599 59.1301 21.1199 59.0401C20.9299 58.9201 20.73 58.7001 20.71 58.5001C20.69 58.3801 20.9799 58.19 21.1599 58.08C21.2499 58.02 21.4099 58.0601 21.5399 58.0601C25.8099 58.0601 30.0899 58.0601 34.3599 58.0601C34.4699 58.0601 34.6099 58.02 34.6799 58.07C34.8799 58.22 35.0499 58.4101 35.2299 58.5901C35.0599 58.7501 34.91 58.9501 34.71 59.0601C34.58 59.1301 34.37 59.08 34.2 59.08C32.13 59.08 30.0599 59.08 27.9799 59.08H27.9699Z" fill="white" stroke="black" stroke-width="0.5" stroke-miterlimit="10"></path>
  <path d="M27.9497 65.2699C26.4997 65.2699 25.0497 65.2699 23.6097 65.2699C23.4197 65.2699 23.1897 65.2998 23.0397 65.2098C22.8797 65.1198 22.6997 64.8999 22.6997 64.7399C22.6997 64.5899 22.9097 64.3899 23.0797 64.2999C23.2097 64.2299 23.4197 64.2699 23.5897 64.2699C26.5097 64.2699 29.4197 64.2699 32.3397 64.2699C32.4697 64.2699 32.6297 64.2299 32.7197 64.2899C32.9097 64.4199 33.0697 64.5999 33.2397 64.7599C33.0697 64.9299 32.9197 65.2199 32.7397 65.2399C32.1897 65.3099 31.6197 65.2799 31.0597 65.2799C30.0197 65.2799 28.9897 65.2799 27.9497 65.2799V65.2699Z" fill="white" stroke="black" stroke-width="0.5" stroke-miterlimit="10"></path>
  <path d="M41.1999 32.3198C41.1999 32.4898 41.1999 32.6698 41.1999 32.8398C41.1799 33.4798 40.7999 33.9098 40.2499 33.9398C39.6899 33.9698 39.2498 33.5998 39.1698 32.9598C39.0998 32.4298 39.0999 31.8798 39.0199 31.3498C38.2499 25.9898 33.8298 21.9898 28.4098 21.7498C28.2998 21.7498 28.1899 21.7498 28.0899 21.7398C27.3899 21.6898 26.9299 21.2399 26.9599 20.6599C26.9899 20.0699 27.4799 19.6699 28.1899 19.6799C29.8699 19.7099 31.4798 20.0499 33.0398 20.6699C37.7498 22.5599 41.0999 27.3199 41.2099 32.2999L41.1999 32.3198Z" fill="black" stroke="black" stroke-width="0.5" stroke-miterlimit="10"></path>
</svg>
