<?xml version="1.0" encoding="UTF-8"?>
<svg xmlns="http://www.w3.org/2000/svg" width="45" height="69" viewBox="0 0 45 69" fill="none">
  <path d="M44.7999 64.93C44.7999 64.64 44.9799 57.8799 40.7198 53.9799C40.2999 53.5999 39.6698 53.57 39.2198 53.91C39.0299 54.05 34.5499 57.37 30.3099 53.92C29.8699 53.56 29.2299 53.5699 28.7999 53.9399C28.7399 53.9899 28.1899 54.49 27.5099 55.4C26.8599 54.39 26.0699 53.4299 25.1399 52.5799C24.7199 52.1999 24.0899 52.1699 23.6399 52.5099C23.3599 52.7299 16.6499 57.7099 10.2699 52.5099C9.8299 52.1499 9.18989 52.16 8.75989 52.53C8.51989 52.74 2.80992 57.81 2.66992 67.8C2.66992 68.11 2.78989 68.42 3.00989 68.64C3.22989 68.86 3.52985 68.9899 3.84985 68.9899H29.6499C30.2799 68.9899 30.7998 68.4799 30.8198 67.8499C30.8198 67.7499 30.8399 67.08 30.7699 66.06H43.6299C44.2599 66.06 44.7799 65.56 44.7999 64.92V64.93ZM5.05994 66.65C5.46994 60.39 8.3399 56.4699 9.6499 54.9799C15.7399 59.2299 21.9598 56.2799 24.1898 54.9399C27.6498 58.6499 28.3098 64.26 28.4398 66.65H5.05994ZM30.4999 63.7199C30.2299 61.9499 29.7099 59.8099 28.7599 57.7099C29.0999 57.1499 29.4298 56.6999 29.6998 56.3799C33.4698 58.8199 37.4899 57.6799 39.7499 56.3499C41.7599 58.6799 42.2699 61.9899 42.3999 63.7099H30.4899L30.4999 63.7199Z" fill="#272525"></path>
  <path d="M32.6503 23.48H23.5103V26.36C23.5103 27.8 24.6802 28.97 26.1202 28.97H34.2502L36.5603 31.63C36.7303 31.83 36.9702 31.9301 37.2202 31.9301C37.3302 31.9301 37.4503 31.91 37.5603 31.86C37.9103 31.71 38.1302 31.36 38.1002 30.98L37.9402 28.97H42.1202C43.5602 28.97 44.7302 27.8 44.7302 26.36V16.05C44.7302 14.61 43.5602 13.4399 42.1202 13.4399H36.4303V19.7C36.4303 21.78 34.7403 23.48 32.6503 23.48ZM36.6403 19.76V15.2H42.1202C42.5902 15.2 42.9702 15.58 42.9702 16.05V26.36C42.9702 26.83 42.5902 27.21 42.1202 27.21H36.9902C36.7402 27.21 36.5102 27.31 36.3402 27.49C36.1702 27.67 36.0902 27.91 36.1102 28.16L36.1302 28.46L35.3103 27.51C35.1403 27.32 34.9003 27.21 34.6503 27.21H26.1202C25.6502 27.21 25.2703 26.83 25.2703 26.36V23.62H32.7803C34.9103 23.62 36.6403 21.89 36.6403 19.76Z" fill="#272525"></path>
  <path d="M0.900146 19.6998C0.900146 21.7798 2.59018 23.4799 4.68018 23.4799H14.8301L14.5402 27.1199C14.5102 27.5599 14.7602 27.9699 15.1602 28.1299C15.2902 28.1799 15.4202 28.2098 15.5502 28.2098C15.8402 28.2098 16.1202 28.0899 16.3102 27.8599L20.1201 23.4799H32.6401C34.7201 23.4799 36.4202 21.7898 36.4202 19.6998V4.63989C36.4202 2.55989 34.7301 0.859863 32.6401 0.859863H4.67017C2.59017 0.859863 0.890137 2.54989 0.890137 4.63989V19.6998H0.900146ZM2.93018 4.63989C2.93018 3.66989 3.71018 2.88989 4.68018 2.88989H32.6501C33.6201 2.88989 34.4001 3.67989 34.4001 4.63989V19.6998C34.4001 20.6598 33.6201 21.4498 32.6501 21.4498H19.6602C19.3702 21.4498 19.0901 21.5799 18.9001 21.7999L16.8002 24.2098L16.9302 22.5399C16.9502 22.2599 16.8602 21.9799 16.6602 21.7699C16.4702 21.5599 16.2002 21.4398 15.9202 21.4398H4.68018C3.72018 21.4398 2.93018 20.6498 2.93018 19.6898V4.62988V4.63989Z" fill="#272525"></path>
  <path d="M34.6103 53.8998C36.7603 53.8998 38.7904 53.0598 40.3104 51.5298C41.8404 49.9998 42.6804 47.9797 42.6704 45.8297C42.6704 41.3797 39.0503 37.7598 34.6003 37.7598C32.4503 37.7598 30.4203 38.5998 28.9003 40.1298C28.4403 40.5898 28.0503 41.0998 27.7203 41.6398C27.7603 41.2798 27.7703 40.9098 27.7703 40.5398C27.7703 34.4598 22.8103 29.5098 16.7303 29.5098C13.7803 29.5098 11.0104 30.6598 8.93036 32.7498C6.84036 34.8398 5.69026 37.6098 5.70026 40.5498C5.70026 46.6298 10.6503 51.5797 16.7403 51.5797C19.6903 51.5797 22.4503 50.4297 24.5403 48.3397C25.3603 47.5197 26.0304 46.5797 26.5504 45.5797C26.5504 45.6597 26.5403 45.7397 26.5403 45.8297C26.5403 50.2797 30.1603 53.8898 34.6103 53.8898V53.8998ZM30.5604 41.7898C31.6404 40.7098 33.0803 40.1097 34.6003 40.1097C37.7503 40.1097 40.3203 42.6797 40.3203 45.8297C40.3203 47.3597 39.7203 48.7898 38.6403 49.8798C37.5603 50.9598 36.1203 51.5598 34.6003 51.5598C31.4503 51.5598 28.8803 48.9897 28.8803 45.8397C28.8803 44.3097 29.4804 42.8798 30.5604 41.7898ZM22.8803 46.6997C21.2403 48.3397 19.0603 49.2498 16.7403 49.2498C11.9503 49.2498 8.05036 45.3498 8.05036 40.5598C8.05036 38.2398 8.95028 36.0598 10.6003 34.4098C12.2403 32.7698 14.4303 31.8597 16.7503 31.8597C21.5403 31.8597 25.4403 35.7598 25.4403 40.5498C25.4403 42.8698 24.5403 45.0497 22.8903 46.6997H22.8803Z" fill="#272525"></path>
</svg>
