<?xml version="1.0" encoding="UTF-8"?>
<svg xmlns="http://www.w3.org/2000/svg" width="66" height="49" viewBox="0 0 66 49" fill="none">
  <path d="M11.3098 30.3397C11.4698 30.2697 11.5698 30.2198 11.6698 30.1698C12.3698 29.7998 13.0698 29.4297 13.7698 29.0697C14.2898 28.7997 14.8298 28.5597 15.3798 28.3597C16.5998 27.9297 17.8098 27.9297 19.0298 28.3497C19.5598 28.5297 20.0598 28.7498 20.5498 29.0098C21.1598 29.3298 21.7398 29.6997 22.3098 30.0897C22.7198 30.3697 23.1298 30.6498 23.5398 30.9298C23.9198 31.1798 24.3098 31.4097 24.7298 31.5797C25.0998 31.7297 25.4798 31.8297 25.8798 31.8497C27.3498 31.9497 28.8198 31.9297 30.2798 31.8597C31.4698 31.8097 32.6498 31.7298 33.8398 31.7698C34.7898 31.7998 35.7298 31.9098 36.6498 32.1698C37.3998 32.3798 38.1198 32.6897 38.7798 33.1097C39.2698 33.4197 39.7198 33.7797 40.1098 34.2097C40.2098 34.3197 40.3098 34.4198 40.4098 34.5398C40.5798 34.7398 40.7898 34.8098 41.0498 34.7698C41.2198 34.7398 41.3798 34.7198 41.5498 34.6798C42.3698 34.5298 43.1898 34.3797 44.0098 34.2097C44.2898 34.1497 44.5598 34.0697 44.8198 33.9697C45.6498 33.6597 46.4398 33.2798 47.2398 32.8998C49.0098 32.0398 50.7698 31.1697 52.5398 30.3197C53.8598 29.6797 55.1998 29.0698 56.5798 28.5598C57.1398 28.3498 57.7098 28.1698 58.2898 28.0298C58.8598 27.8898 59.4198 27.8498 59.9998 27.9298C60.8598 28.0498 61.7198 28.1497 62.5798 28.3297C63.1698 28.4497 63.7498 28.5898 64.3098 28.8098C64.7098 28.9698 65.0898 29.1697 65.3998 29.4797C65.5398 29.6197 65.6798 29.7797 65.7898 29.9497C66.0298 30.3297 66.0798 30.7398 65.8998 31.1498C65.8098 31.3598 65.6898 31.5497 65.5598 31.7297C65.3598 32.0097 65.1098 32.2397 64.8498 32.4597C64.2498 32.9597 63.5998 33.3898 62.9098 33.7598C55.0198 37.9298 47.1298 42.0898 39.2298 46.2498C39.0398 46.3498 38.8598 46.4597 38.6698 46.5697C37.3798 47.3297 35.9898 47.8198 34.5098 48.0098C32.8198 48.2298 31.1798 48.0098 29.5898 47.4098C29.0898 47.2198 28.5598 47.0798 28.0398 46.9298C25.5298 46.1898 23.0098 45.4497 20.4998 44.7097C20.1698 44.6097 19.8398 44.5597 19.4998 44.5997C18.7798 44.6797 18.0598 44.7397 17.3498 44.8397C16.2898 44.9997 15.2298 45.1697 14.1698 45.3597C13.2998 45.5197 12.4398 45.7098 11.5798 45.8998C11.4898 45.9198 11.4098 45.9597 11.3098 45.9897C11.3098 46.1097 11.3098 46.2297 11.3098 46.3397C11.3098 46.7397 11.3098 47.1298 11.3098 47.5298C11.3098 47.6798 11.3098 47.8297 11.2498 47.9597C11.1098 48.3397 10.8398 48.5798 10.4298 48.6298C10.3198 48.6398 10.1998 48.6398 10.0898 48.6398C7.38978 48.6398 4.68978 48.6398 1.98978 48.6398C1.89978 48.6398 1.80979 48.6398 1.71979 48.6398C1.28979 48.6198 0.829785 48.2797 0.779785 47.6997C0.779785 47.6097 0.779785 47.5198 0.779785 47.4298C0.779785 41.0998 0.779785 34.7697 0.779785 28.4497C0.779785 28.2797 0.779788 28.1097 0.829788 27.9497C0.959788 27.5597 1.28978 27.2898 1.69978 27.2598C1.79978 27.2598 1.89979 27.2598 1.99979 27.2598C4.68979 27.2598 7.37979 27.2598 10.0698 27.2598C10.1698 27.2598 10.2698 27.2598 10.3698 27.2598C10.8598 27.2998 11.2298 27.6598 11.2898 28.1498C11.2998 28.2598 11.2998 28.3797 11.2998 28.4897C11.2998 28.9897 11.2998 29.4797 11.2998 29.9797C11.2998 30.0897 11.2998 30.1998 11.2998 30.3898L11.3098 30.3397ZM41.4798 36.7598C41.3898 36.8798 41.4098 36.9997 41.3898 37.1097C41.3398 37.4097 41.3098 37.7198 41.2398 38.0098C40.9298 39.2798 40.2098 40.2598 39.0898 40.9198C38.7598 41.1198 38.4098 41.2798 38.0498 41.4098C37.1398 41.7398 36.1898 41.8897 35.2298 41.9497C33.8298 42.0297 32.4298 41.9297 31.0398 41.7297C29.3698 41.4897 27.7298 41.1198 26.1098 40.6798C26.0098 40.6498 25.9098 40.6297 25.8198 40.5797C25.4298 40.3897 25.2098 39.9698 25.2598 39.5498C25.3098 39.1098 25.6498 38.7598 26.0898 38.6798C26.2998 38.6398 26.4898 38.6797 26.6898 38.7397C28.6798 39.2597 30.6898 39.7098 32.7398 39.8798C33.7898 39.9698 34.8398 39.9897 35.8898 39.8397C36.5398 39.7497 37.1698 39.5798 37.7598 39.2598C38.8798 38.6498 39.3698 37.6698 39.4198 36.4298C39.1898 36.1798 38.9598 35.9497 38.7498 35.6997C38.2798 35.1697 37.7098 34.7697 37.0598 34.4797C36.3298 34.1497 35.5598 33.9798 34.7698 33.8898C33.7198 33.7698 32.6698 33.7997 31.6198 33.8397C30.9798 33.8697 30.3298 33.9198 29.6898 33.9298C28.3698 33.9698 27.0498 33.9798 25.7298 33.8798C25.3598 33.8498 24.9898 33.7897 24.6298 33.6897C24.0398 33.5197 23.4898 33.2697 22.9698 32.9397C22.4898 32.6397 22.0298 32.3198 21.5498 32.0098C21.0598 31.6898 20.5698 31.3598 20.0698 31.0598C19.5998 30.7698 19.0898 30.5398 18.5598 30.3798C17.9398 30.1898 17.2998 30.1097 16.6498 30.2097C16.2098 30.2797 15.7898 30.3997 15.3898 30.5797C14.9498 30.7797 14.5098 30.9997 14.0798 31.2097C13.2198 31.6397 12.3698 32.0798 11.5098 32.5098C11.4498 32.5398 11.3998 32.5798 11.3398 32.6198C11.3398 36.3098 11.3398 39.9998 11.3398 43.6798C11.3398 43.7198 11.3598 43.7597 11.3698 43.8297C11.4398 43.8297 11.5098 43.8298 11.5698 43.8098C12.6898 43.5498 13.8198 43.3298 14.9598 43.1398C16.4098 42.8898 17.8598 42.6797 19.3298 42.5797C19.9698 42.5297 20.5798 42.5798 21.1998 42.7598C23.8098 43.5398 26.4198 44.2997 29.0298 45.0697C29.4498 45.1897 29.8798 45.3097 30.2898 45.4597C31.6698 45.9997 33.0798 46.1797 34.5498 45.9397C35.7298 45.7497 36.8198 45.3497 37.8198 44.6997C37.8998 44.6397 37.9898 44.5898 38.0798 44.5498C45.3398 40.7198 52.6098 36.8898 59.8698 33.0598C61.1098 32.4098 62.3498 31.7698 63.5598 31.0498C63.6598 30.9898 63.7798 30.9497 63.8698 30.8397C63.7598 30.7097 63.6198 30.6698 63.4898 30.6198C63.0798 30.4598 62.6498 30.3598 62.2098 30.2898C61.4498 30.1698 60.6898 30.0697 59.9298 29.9497C59.3898 29.8597 58.8698 29.9197 58.3598 30.0797C57.9898 30.1997 57.6298 30.3097 57.2698 30.4497C56.1098 30.8897 54.9798 31.3997 53.8598 31.9397C52.0098 32.8297 50.1598 33.7398 48.3098 34.6398C47.4598 35.0498 46.5998 35.4498 45.7098 35.7998C45.2698 35.9698 44.8198 36.1297 44.3498 36.2097C43.6898 36.3297 43.0398 36.4497 42.3898 36.5797C42.0898 36.6397 41.7898 36.6898 41.5098 36.7498L41.4798 36.7598ZM2.82979 29.2798C2.77979 29.4198 2.79979 29.5697 2.79979 29.7097C2.79979 35.1797 2.79979 40.6397 2.79979 46.1097C2.79979 46.1897 2.79979 46.2697 2.79979 46.3497C2.79979 46.4197 2.81979 46.4798 2.81979 46.5498C2.87979 46.5598 2.91979 46.5797 2.95979 46.5797C5.01979 46.5797 7.06978 46.5797 9.12978 46.5797C9.15978 46.5797 9.18978 46.5598 9.23978 46.5398C9.23978 46.4298 9.25979 46.3197 9.25979 46.2097C9.25979 45.6997 9.25979 45.1897 9.25979 44.6897C9.25979 40.6197 9.25979 36.5597 9.25979 32.4897C9.25979 31.5397 9.25979 30.5898 9.25979 29.6398C9.25979 29.5198 9.26979 29.3898 9.22979 29.2798C9.18979 29.2698 9.14979 29.2498 9.11979 29.2498C7.04979 29.2498 4.98978 29.2498 2.91978 29.2498C2.88978 29.2498 2.85979 29.2698 2.81979 29.2798H2.82979Z" fill="black"></path>
  <path d="M47.0099 27.0501C40.9399 27.0501 35.9999 22.1001 36.0299 16.0001C36.0599 10.0301 40.8899 5.04012 47.0499 5.06012C53.2699 5.08012 58.0399 10.16 58.0199 16.09C57.9999 22.09 53.1099 27.0601 47.0099 27.0501ZM47.0199 25.0201C51.9999 25.0301 55.9699 20.96 55.9799 16.08C55.9899 11.27 52.1199 7.10004 47.0199 7.10004C41.9799 7.10004 38.0699 11.1901 38.0599 16.0401C38.0599 21.0001 42.0799 25.0301 47.0199 25.0201Z" fill="black"></path>
  <path d="M32.1397 8.77993C32.0997 13.5699 28.2097 17.2298 23.6497 17.1898C18.9897 17.1598 15.2397 13.3498 15.2697 8.69985C15.2997 4.18985 18.9397 0.309844 23.7197 0.319844C28.3897 0.319844 32.1297 4.09992 32.1397 8.76992V8.77993ZM30.1097 8.94985C30.1897 5.42985 27.4797 2.48989 23.9197 2.36989C20.3497 2.24989 17.4997 5.00995 17.3197 8.42995C17.1397 12 19.8797 14.9799 23.3797 15.1599C26.9197 15.3399 29.9797 12.6098 30.1097 8.94985Z" fill="black"></path>
  <path d="M46.5896 10.5197C46.5896 10.2897 46.6096 10.0797 46.6096 9.86971C46.8896 9.80971 47.6496 9.80971 47.9496 9.86971C48.0296 10.0697 47.9496 10.2897 48.0096 10.5097C48.2096 10.5897 48.4296 10.6597 48.6196 10.7697C48.8096 10.8697 48.9796 10.9997 49.1296 11.1497C49.2896 11.3097 49.4296 11.4898 49.5396 11.6798C49.6496 11.8598 49.7196 12.0697 49.7896 12.2697C49.8696 12.4797 49.8996 12.6997 49.9096 12.9397C49.3896 13.0497 48.8896 13.1397 48.3696 13.2197C48.3396 13.1297 48.3096 13.0397 48.2896 12.9597C48.2396 12.7097 48.1396 12.4897 48.0196 12.2697C47.7796 11.8497 46.9596 11.7598 46.6396 12.2998C46.5396 12.4698 46.4696 12.6497 46.4496 12.8397C46.4096 13.2197 46.4496 13.5798 46.6096 13.9298C46.7696 14.2698 46.9796 14.5797 47.2496 14.8397C47.5196 15.0997 47.7996 15.3397 48.0896 15.5797C48.5296 15.9497 48.9296 16.3697 49.2596 16.8497C49.5796 17.3197 49.8396 17.8197 49.9296 18.3897C50.0396 19.0497 49.9596 19.6998 49.6596 20.2998C49.3696 20.8698 48.9096 21.2497 48.2996 21.4397C48.1896 21.4697 48.0896 21.4998 47.9596 21.5398V22.2197C47.7196 22.2897 47.0496 22.2997 46.6196 22.2497C46.5296 22.0197 46.6196 21.7597 46.5596 21.4997C46.4896 21.4697 46.4196 21.4297 46.3296 21.3997C45.8296 21.2197 45.4496 20.8997 45.1596 20.4597C44.7796 19.8797 44.6096 19.2297 44.5596 18.5297C44.8196 18.4197 45.0796 18.4697 45.3296 18.4397C45.5796 18.4097 45.8196 18.3997 46.0496 18.3797C46.1496 18.4797 46.1496 18.5898 46.1596 18.6798C46.1996 18.9098 46.2496 19.1497 46.3596 19.3597C46.4296 19.4997 46.5196 19.6397 46.6196 19.7497C46.9296 20.0897 47.4096 20.1397 47.7896 19.8797C48.0396 19.7097 48.2096 19.4698 48.2696 19.1698C48.3496 18.7698 48.2896 18.3797 48.0996 18.0197C47.9696 17.7697 47.7996 17.5397 47.5896 17.3497C47.1396 16.9297 46.6896 16.5197 46.2596 16.0897C45.9696 15.7997 45.6896 15.5097 45.4396 15.1897C44.8796 14.4897 44.6496 13.6797 44.7396 12.7797C44.7996 12.2197 44.9996 11.7097 45.3496 11.2597C45.5896 10.9597 45.8896 10.7497 46.2396 10.6097C46.3296 10.5697 46.4296 10.5397 46.5596 10.4897L46.5896 10.5197Z" fill="black"></path>
  <path d="M23.3799 4.62997C23.3899 4.46997 23.3999 4.32001 23.4099 4.18001C23.6399 4.11001 24.0599 4.09999 24.4099 4.15999C24.4199 4.30999 24.4299 4.45997 24.4399 4.63997C24.7899 4.74997 25.1099 4.90001 25.3499 5.18001C25.5199 5.37001 25.6499 5.57991 25.7299 5.81991C25.7899 6.00991 25.8599 6.20001 25.8399 6.43001C25.4899 6.53001 25.1199 6.57998 24.7299 6.63998C24.6999 6.55998 24.6599 6.47997 24.6399 6.38998C24.5999 6.21997 24.5399 6.07001 24.4399 5.93001C24.1899 5.58001 23.6599 5.59992 23.4299 5.95992C23.2599 6.21992 23.2299 6.51002 23.2899 6.81002C23.3699 7.21002 23.5699 7.54992 23.8599 7.82992C24.0599 8.02992 24.2799 8.20998 24.4899 8.38998C24.7799 8.62997 25.0399 8.8999 25.2599 9.1899C25.4499 9.4399 25.6099 9.71997 25.7299 10.01C25.9399 10.52 25.9499 11.0399 25.7999 11.5699C25.6199 12.1599 25.2399 12.57 24.6499 12.76C24.5899 12.78 24.5199 12.7999 24.4499 12.8199C24.3599 12.9899 24.4499 13.1799 24.3799 13.3399C24.0999 13.3999 23.6599 13.3999 23.3899 13.3399C23.3899 13.2599 23.3799 13.1699 23.3699 13.0799C23.3699 12.9899 23.3599 12.9 23.3499 12.8C22.8699 12.66 22.4999 12.3799 22.2499 11.9499C22.0199 11.5399 21.8799 11.11 21.8799 10.62C22.0699 10.53 22.2599 10.56 22.4499 10.54C22.6299 10.52 22.8099 10.52 22.9999 10.5C23.0299 10.62 23.0499 10.7299 23.0799 10.8299C23.1399 10.9999 23.1799 11.1799 23.2699 11.3299C23.4199 11.5899 23.6399 11.7699 23.9599 11.7199C24.2999 11.6699 24.5099 11.47 24.6099 11.15C24.6999 10.87 24.6699 10.5899 24.5499 10.3199C24.4499 10.0799 24.2899 9.8699 24.0999 9.6899C23.7799 9.3899 23.4499 9.08999 23.1399 8.77999C22.8999 8.53999 22.6699 8.28998 22.4699 8.01998C22.0499 7.45998 21.9099 6.80997 22.0399 6.12997C22.1699 5.44997 22.5199 4.92 23.2099 4.67C23.2499 4.66 23.2899 4.62994 23.3599 4.59994L23.3799 4.62997Z" fill="black"></path>
</svg>
