<?xml version="1.0" encoding="UTF-8"?>
<svg xmlns="http://www.w3.org/2000/svg" width="58" height="48" viewBox="0 0 58 48" fill="none">
  <path d="M25.7096 46.54C25.6695 47.78 26.4096 48.2899 27.4196 47.7499C30.4396 46.1299 33.4396 44.48 36.4196 42.79C36.9896 42.47 37.5196 41.97 37.8896 41.43C41.2196 36.55 44.5195 31.6399 47.8195 26.7499C50.9795 22.0699 54.1496 17.3899 57.3096 12.7099C58.3396 11.1799 58.1896 9.60991 56.8396 8.61991C54.9896 7.27991 53.0996 5.98992 51.1796 4.74992C49.9296 3.93992 48.4296 4.27988 47.5096 5.45988C47.1496 5.91988 46.8196 6.40994 46.4996 6.89994C40.4296 15.8799 34.3796 24.8799 28.2896 33.8499C27.5796 34.8999 27.0995 35.9699 26.9495 37.2399C26.5795 40.3799 26.1095 43.52 25.6895 46.55L25.7096 46.54ZM32.6895 6.76994C31.8195 6.37994 31.0296 5.86994 30.1596 5.64994C28.6296 5.25994 27.7896 4.56987 27.8496 2.82987C27.8896 1.71987 27.0196 1.01992 25.9296 0.999918C23.9996 0.959918 22.0796 0.949918 20.1496 0.999918C19.1696 1.02992 18.2695 1.61986 18.3195 2.56986C18.4295 4.64986 17.2996 5.40995 15.5496 5.77995C15.3896 5.80995 15.2296 5.8799 15.1096 5.9799C14.0096 6.8299 13.1096 6.65986 12.0996 5.68986C10.9996 4.62986 9.95956 4.77991 8.83956 5.86991C7.97956 6.70991 7.14961 7.59996 6.26961 8.41996C4.37961 10.18 3.73954 11.1399 5.94954 13.4599C6.13954 13.6599 6.15964 14.1599 6.04964 14.4499C5.76964 15.2499 5.21965 15.9699 5.05965 16.7799C4.77965 18.1799 4.03961 18.6499 2.64961 18.6499C1.34961 18.6499 0.599648 19.43 0.559648 20.66C0.499648 22.55 0.499648 24.4499 0.559648 26.3399C0.599648 27.5199 1.35965 28.2199 2.55965 28.3599C2.91965 28.3999 3.27959 28.4399 3.62959 28.4399C4.22959 28.4399 4.55957 28.68 4.72957 29.29C4.93957 30.04 5.14954 30.8399 5.56954 31.4699C6.34954 32.6399 6.19955 33.4799 5.20955 34.4799C4.15955 35.5399 4.30959 36.58 5.36959 37.66C6.46958 38.78 7.57953 39.8799 8.68953 40.9899C10.0195 42.2999 10.8796 42.3299 12.3396 41.1299C12.5396 40.9599 12.7195 40.7199 12.9495 40.6499C13.2995 40.5399 13.7296 40.4199 14.0396 40.5299C15.0496 40.8899 16.0096 41.4199 17.0296 41.7399C17.7796 41.9799 18.1296 42.2799 18.1696 43.1299C18.2296 44.4999 18.8596 45.3399 19.8996 45.3999C21.4896 45.4999 23.0796 45.43 24.7196 45.43C24.8196 44.69 24.9096 44.0299 25.0096 43.2099H20.4495C20.3795 42.6899 20.2996 42.3 20.2896 41.92C20.2496 40.76 19.6196 40.2199 18.5496 39.8799C17.2496 39.4699 15.9896 38.9199 14.7596 38.3299C13.4296 37.6899 12.9996 37.6899 11.8496 38.6499C11.4296 38.9999 11.0096 39.3399 10.6696 39.6199C9.36963 38.3399 8.15962 37.15 6.90962 35.93C7.26962 35.49 7.6396 35.0399 8.0096 34.5899C8.8296 33.5799 8.82963 33.07 8.28963 31.92C7.67963 30.63 7.12962 29.2999 6.65962 27.9499C6.30962 26.9199 5.70959 26.36 4.61959 26.31C4.01959 26.28 3.40958 26.1999 2.85958 26.1399C2.80958 25.9399 2.77962 25.8799 2.77962 25.8199C2.77962 24.7399 2.7696 23.6699 2.7596 22.5899C2.7596 21.4632 3.31631 20.8499 4.42964 20.7499C5.89964 20.6199 6.21954 20.2799 6.69954 18.8899C7.14954 17.5999 7.69963 16.3399 8.28963 15.1099C8.83963 13.9599 8.8296 13.43 8.0096 12.43C7.6396 11.98 7.26956 11.54 6.96956 11.18C8.22956 9.90997 9.42964 8.68996 10.6796 7.41996C11.1396 7.79996 11.6496 8.20992 12.1396 8.62992C12.8796 9.25992 13.6196 9.24989 14.4996 8.84989C15.9096 8.18989 17.3695 7.60998 18.8295 7.05998C19.6495 6.74998 20.1296 6.2299 20.2196 5.3599C20.2896 4.6799 20.3596 3.99998 20.4296 3.30998H25.6596C25.7296 3.89998 25.8296 4.40997 25.8396 4.92997C25.8496 6.19997 26.4795 6.87986 27.6995 7.18986C28.6695 7.43986 29.6996 7.72996 30.5096 8.28996C32.1896 9.42996 33.6296 9.38991 34.9896 7.86991C35.0196 7.82991 35.1095 7.84989 35.0695 7.84989C36.3295 9.07989 37.5296 10.2599 38.7396 11.4399C36.6796 14.0699 37.1496 13.87 38.6696 16.54C39.1196 15.81 39.8496 15.1299 39.8796 14.4399C39.8996 13.7999 40.1095 13.4399 40.4395 13.0299C41.4395 11.7999 41.3996 10.83 40.2596 9.67997C39.1796 8.58997 38.0996 7.49996 37.0096 6.41996C35.6996 5.11996 34.8196 5.07994 33.3596 6.26994C33.1296 6.44994 32.8996 6.62996 32.6796 6.78996L32.6895 6.76994ZM31.7896 26.6899C32.6296 25.4499 33.4896 24.2199 34.2896 22.9599C34.4596 22.6899 34.4895 22.2699 34.4495 21.9399C33.6195 14.9099 27.1195 10.2799 20.1995 11.7599C13.7895 13.1399 9.79963 19.6699 11.4196 26.1399C12.9896 32.4299 19.6396 36.2999 25.8596 34.5199C26.2196 34.4199 26.6496 34.2599 26.8496 33.9799C27.7396 32.7599 28.5596 31.49 29.5296 30.05C24.3796 33.62 19.6296 33.5199 16.0496 29.8999C12.7796 26.5899 12.3595 21.4499 15.0695 17.6999C17.7895 13.9199 22.8396 12.63 26.9296 14.67C31.3396 16.86 33.2096 21.5399 31.7996 26.6999L31.7896 26.6899Z" fill="white"></path>
  <path d="M25.71 46.5399C26.13 43.5099 26.6 40.3799 26.97 37.2299C27.12 35.9499 27.5901 34.8898 28.3101 33.8398C34.4001 24.8698 40.45 15.8799 46.52 6.88989C46.85 6.39989 47.17 5.90983 47.53 5.44983C48.45 4.26983 49.95 3.93987 51.2 4.73987C53.12 5.97987 55.01 7.26986 56.86 8.60986C58.21 9.58986 58.36 11.1698 57.33 12.6998C54.17 17.3798 51 22.0599 47.84 26.7399C44.53 31.6399 41.24 36.5499 37.91 41.4199C37.54 41.9599 37.0099 42.4599 36.4399 42.7799C33.4599 44.4699 30.4599 46.1199 27.4399 47.7399C26.4199 48.2799 25.69 47.7699 25.73 46.5299L25.71 46.5399ZM46.9399 10.2499C41.2399 18.7099 35.58 27.0999 29.88 35.5399C32.05 37.0299 34.11 38.4399 36.25 39.9099C41.96 31.4499 47.6201 23.0599 53.3101 14.6299C51.1401 13.1399 49.0699 11.7299 46.9399 10.2599V10.2499ZM28.22 44.7999C30.36 43.6099 32.32 42.5199 34.41 41.3699C32.61 40.1299 30.9601 39.0099 29.1801 37.7799C28.8501 40.1899 28.55 42.3899 28.22 44.7999ZM48.23 8.41992C50.37 9.88992 52.4501 11.3099 54.5601 12.7499C54.8201 12.3899 55.0099 12.1199 55.1899 11.8599C55.9599 10.7399 55.96 10.7098 54.88 9.94983C53.76 9.16983 52.63 8.39989 51.5 7.63989C49.51 6.29989 49.79 5.91992 48.23 8.41992Z" fill="black"></path>
  <path d="M32.6894 6.76992C32.9094 6.59992 33.1395 6.4299 33.3695 6.2499C34.8395 5.0599 35.7095 5.09993 37.0195 6.39993C38.1095 7.47993 39.1895 8.56994 40.2695 9.65994C41.4095 10.8099 41.4494 11.7799 40.4494 13.0099C40.1194 13.4199 39.9095 13.7699 39.8895 14.4199C39.8695 15.1099 39.1395 15.7899 38.6795 16.5199C37.1595 13.8499 36.6895 14.0499 38.7495 11.4199C37.5395 10.2399 36.3294 9.04986 35.0794 7.82986C35.1294 7.82986 35.0395 7.80988 34.9995 7.84988C33.6295 9.36988 32.1995 9.41992 30.5195 8.26992C29.7095 7.71992 28.6794 7.41995 27.7094 7.16995C26.4794 6.84995 25.8594 6.17994 25.8494 4.90994C25.8494 4.38994 25.7395 3.87994 25.6695 3.28994H20.4394C20.3694 3.97994 20.2994 4.65987 20.2294 5.33987C20.1394 6.21987 19.6594 6.72994 18.8394 7.03994C17.3794 7.58994 15.9295 8.16986 14.5095 8.82986C13.6395 9.22986 12.8895 9.23989 12.1495 8.60989C11.6595 8.18989 11.1494 7.77993 10.6894 7.39993C9.43941 8.65993 8.23945 9.87994 6.97945 11.1599C7.27945 11.5199 7.64949 11.9599 8.01949 12.4099C8.83949 13.3999 8.83952 13.9399 8.29952 15.0899C7.70952 16.3199 7.15943 17.5799 6.70943 18.8699C6.22943 20.2599 5.90941 20.5999 4.43941 20.7299C3.32608 20.8299 2.76949 21.4432 2.76949 22.5698C2.76949 23.6498 2.76951 24.72 2.78951 25.8C2.78951 25.86 2.81946 25.9299 2.86946 26.1199C3.41946 26.1699 4.02947 26.2599 4.62947 26.2899C5.71947 26.3399 6.31951 26.9 6.66951 27.93C7.12951 29.28 7.68952 30.6099 8.29952 31.8999C8.83952 33.0499 8.83949 33.5598 8.01949 34.5698C7.64949 35.0198 7.27951 35.4699 6.91951 35.9099C8.16951 37.1399 9.36952 38.3199 10.6795 39.5999C11.0195 39.3199 11.4395 38.9799 11.8595 38.6299C13.0095 37.6699 13.4395 37.67 14.7695 38.31C15.9995 38.9 17.2695 39.4499 18.5595 39.8599C19.6295 40.1999 20.2595 40.7499 20.2995 41.8999C20.3095 42.2899 20.3894 42.6698 20.4594 43.1898H25.0195C24.9095 44.0098 24.8294 44.6699 24.7294 45.4099C23.0894 45.4099 21.4895 45.4799 19.9095 45.3799C18.8695 45.3199 18.2395 44.4799 18.1795 43.1099C18.1395 42.2599 17.7895 41.9599 17.0395 41.7199C16.0195 41.3999 15.0695 40.8699 14.0495 40.5099C13.7395 40.3999 13.3094 40.5099 12.9594 40.6299C12.7294 40.6999 12.5494 40.9499 12.3494 41.1099C10.8994 42.3099 10.0294 42.2799 8.69942 40.9699C7.58942 39.8699 6.47947 38.7599 5.37947 37.6399C4.31947 36.5599 4.16944 35.5199 5.21944 34.4599C6.19944 33.4599 6.35942 32.6199 5.57942 31.4499C5.15942 30.8199 4.93946 30.0199 4.73946 29.2699C4.56946 28.6499 4.22948 28.4199 3.63948 28.4199C3.27948 28.4199 2.91941 28.3799 2.56941 28.3399C1.36941 28.1999 0.599414 27.4998 0.569414 26.3198C0.509414 24.4298 0.509414 22.5299 0.569414 20.6399C0.609414 19.4199 1.3595 18.6299 2.6595 18.6299C4.0395 18.6299 4.77941 18.1599 5.06941 16.7599C5.22941 15.9499 5.77953 15.22 6.05953 14.43C6.15953 14.14 6.13943 13.6398 5.95943 13.4398C3.75943 11.1198 4.3895 10.1599 6.2795 8.39993C7.1595 7.57993 7.98944 6.68988 8.84944 5.84988C9.96944 4.74988 11.0095 4.60995 12.1095 5.66995C13.1195 6.64995 14.0195 6.81986 15.1195 5.95986C15.2495 5.85986 15.4095 5.78991 15.5595 5.75991C17.2995 5.39991 18.4294 4.62995 18.3294 2.54995C18.2794 1.59995 19.1795 1.00988 20.1595 0.979883C22.0895 0.929883 24.0094 0.929883 25.9394 0.979883C27.0294 0.999883 27.8895 1.69996 27.8595 2.80996C27.7995 4.54996 28.6495 5.24991 30.1695 5.62991C31.0395 5.84991 31.8394 6.3599 32.6994 6.7499L32.6894 6.76992Z" fill="black"></path>
  <path d="M31.7899 26.6898C33.1999 21.5298 31.3399 16.8499 26.9199 14.6599C22.8199 12.6199 17.78 13.9098 15.06 17.6898C12.36 21.4398 12.7699 26.5799 16.0399 29.8899C19.6199 33.5099 24.3699 33.6199 29.5199 30.0399C28.5499 31.4799 27.7299 32.7598 26.8399 33.9698C26.6399 34.2498 26.2099 34.4099 25.8499 34.5099C19.6299 36.2899 12.9799 32.4199 11.4099 26.1299C9.78994 19.6599 13.7798 13.1299 20.1898 11.7499C27.1198 10.2599 33.6098 14.8899 34.4398 21.9299C34.4798 22.2599 34.4499 22.6798 34.2799 22.9498C33.4799 24.2098 32.6199 25.4399 31.7799 26.6799L31.7899 26.6898Z" fill="black"></path>
  <path d="M46.9398 10.2498C49.0798 11.7098 51.1399 13.1298 53.3099 14.6198C47.6199 23.0498 41.9599 31.4398 36.2499 39.8998C34.1099 38.4298 32.0499 37.0198 29.8799 35.5298C35.5699 27.0898 41.2298 18.6997 46.9398 10.2397V10.2498Z" fill="white"></path>
  <path d="M28.2197 44.7998C28.5497 42.3898 28.8498 40.1898 29.1798 37.7798C30.9598 38.9998 32.6098 40.1298 34.4098 41.3698C32.3198 42.5298 30.3597 43.6198 28.2197 44.7998Z" fill="white"></path>
  <path d="M48.2295 8.41989C49.7895 5.91989 49.5095 6.29986 51.4995 7.63986C52.6295 8.39986 53.7595 9.1698 54.8795 9.9498C55.9595 10.7098 55.9595 10.7298 55.1895 11.8598C55.0095 12.1298 54.8196 12.3899 54.5596 12.7499C52.4596 11.3099 50.3795 9.88989 48.2295 8.41989Z" fill="white"></path>
</svg>
