<?xml version="1.0" encoding="UTF-8"?>
<svg xmlns="http://www.w3.org/2000/svg" width="50" height="64" viewBox="0 0 50 64" fill="none">
  <path d="M0.200202 31.73C0.200202 22.87 0.200202 14 0.200202 5.14005C0.200202 2.63005 1.72021 0.670056 4.0702 0.150056C4.5702 0.0400559 5.10021 0.0300608 5.62021 0.0300608C18.5602 0.0300608 31.5102 0.0600315 44.4502 3.15286e-05C47.5502 -0.00996847 49.8102 2.36004 49.8002 5.38004C49.7402 22.97 49.7402 40.5601 49.8002 58.1501C49.8102 61.1201 47.6002 63.5401 44.4402 63.5301C31.4702 63.4701 18.5102 63.4701 5.54021 63.5301C2.31021 63.5501 0.120207 61.08 0.150207 58.11C0.240207 49.32 0.180206 40.52 0.180206 31.73H0.200202ZM47.8102 31.83C47.8102 23.06 47.8102 14.28 47.8102 5.51004C47.8102 3.15004 46.6602 2.01004 44.3102 2.01004C31.4102 2.01004 18.5102 2.01004 5.61021 2.01004C3.35021 2.01004 2.18021 3.17998 2.18021 5.44998C2.18021 23 2.18021 40.55 2.18021 58.09C2.18021 60.35 3.36021 61.5201 5.62021 61.5201C18.5002 61.5201 31.3702 61.5201 44.2502 61.5201C46.7002 61.5201 47.8202 60.4 47.8202 57.95C47.8202 49.24 47.8202 40.54 47.8202 31.83H47.8102Z" fill="black"></path>
  <path d="M40.7501 11.4498C39.7001 12.5898 38.7901 13.5898 37.8801 14.5798C35.5401 17.1398 33.2001 19.6999 30.8601 22.2499C30.1901 22.9899 29.8001 23.0199 29.0001 22.4199C26.0801 20.2399 23.1601 18.0498 20.1801 15.8198C18.9501 16.9198 17.7301 18.0199 16.5001 19.1199C14.0601 21.3199 11.6201 23.5198 9.16015 25.7098C8.93015 25.9098 8.61014 26.1799 8.36014 26.1399C8.01014 26.0899 7.58014 25.8698 7.38014 25.5898C7.11014 25.1898 7.27015 24.7199 7.65015 24.3799C8.68015 23.4599 9.71015 22.5298 10.7301 21.6098C13.4901 19.1198 16.2601 16.6399 19.0201 14.1499C19.9401 13.3299 20.1501 13.3199 21.1201 14.0399C23.9701 16.1699 26.8101 18.3099 29.7301 20.4899C32.9001 17.0199 36.0802 13.5598 39.3801 9.94981C38.0602 9.94981 36.9201 9.94981 35.7801 9.94981C35.4601 9.94981 35.1401 9.9699 34.8301 9.9099C34.3001 9.7999 34.0101 9.42987 34.0401 8.87987C34.0701 8.32987 34.4001 7.96982 34.9501 7.95982C37.2201 7.93982 39.4801 7.93982 41.7501 7.95982C42.3301 7.95982 42.6801 8.32991 42.6901 8.91991C42.7101 11.1599 42.7101 13.4099 42.6901 15.6499C42.6901 16.2499 42.2401 16.6499 41.7001 16.6299C41.1601 16.6199 40.7501 16.2098 40.7402 15.6098C40.7201 14.2998 40.7402 12.9798 40.7402 11.4398L40.7501 11.4498Z" fill="black"></path>
  <path d="M42.8404 28.37C42.8404 30.57 42.8404 32.77 42.8404 34.96C42.8404 35.98 42.4604 36.36 41.4504 36.36C40.1404 36.36 38.8204 36.36 37.5104 36.36C36.5604 36.36 36.1504 35.95 36.1504 34.99C36.1504 30.53 36.1504 26.06 36.1504 21.6C36.1504 20.64 36.5604 20.23 37.5204 20.23C38.8604 20.23 40.1904 20.23 41.5304 20.23C42.4504 20.23 42.8404 20.6399 42.8404 21.5699C42.8404 23.8399 42.8404 26.1 42.8404 28.37Z" fill="black"></path>
  <path d="M23.5103 29.4899C23.5103 31.3199 23.5103 33.1599 23.5103 34.9899C23.5103 35.9499 23.1103 36.3499 22.1503 36.3499C20.8103 36.3499 19.4803 36.3499 18.1403 36.3499C17.2203 36.3499 16.8203 35.9399 16.8203 35.0099C16.8203 31.3199 16.8203 27.63 16.8203 23.93C16.8203 22.96 17.2103 22.5799 18.1803 22.5699C19.5203 22.5699 20.8503 22.5599 22.1903 22.5699C23.1203 22.5699 23.5103 22.98 23.5103 23.9C23.5103 25.76 23.5103 27.6099 23.5103 29.4699V29.4899Z" fill="black"></path>
  <path d="M25.0001 41.69C30.4601 41.69 35.9202 41.69 41.3801 41.69C41.5802 41.69 41.7901 41.6701 41.9902 41.7101C42.5302 41.8101 42.8301 42.14 42.8301 42.69C42.8301 43.22 42.5401 43.5301 42.0401 43.6501C41.8501 43.7001 41.6301 43.6802 41.4301 43.6802C30.4701 43.6802 19.5001 43.6802 8.54014 43.6802C8.34014 43.6802 8.13014 43.6901 7.93014 43.6501C7.44014 43.5301 7.14014 43.2102 7.15014 42.6802C7.16014 42.1302 7.47015 41.8001 8.01015 41.7101C8.21015 41.6801 8.42015 41.7001 8.62015 41.7001C14.0801 41.7001 19.5401 41.7001 25.0001 41.7001V41.69Z" fill="black"></path>
  <path d="M24.9801 47.64C30.4201 47.64 35.8501 47.64 41.2901 47.64C41.4901 47.64 41.7001 47.63 41.9001 47.64C42.4801 47.7 42.8201 48.03 42.8201 48.61C42.8201 49.2 42.4901 49.53 41.9101 49.6C41.7101 49.62 41.5001 49.61 41.3001 49.61C30.4001 49.61 19.5101 49.61 8.61014 49.61C8.41014 49.61 8.20014 49.62 8.00014 49.59C7.45014 49.51 7.15014 49.18 7.14014 48.63C7.14014 48.07 7.44014 47.74 7.98014 47.65C8.20014 47.61 8.43014 47.63 8.66014 47.63C14.1001 47.63 19.5301 47.63 24.9701 47.63L24.9801 47.64Z" fill="black"></path>
  <path d="M26.48 31.4301C26.48 30.2101 26.48 28.98 26.48 27.76C26.48 26.84 26.89 26.4499 27.81 26.4399C29.17 26.4399 30.53 26.4399 31.89 26.4399C32.77 26.4399 33.17 26.84 33.18 27.73C33.18 30.18 33.18 32.6199 33.18 35.0699C33.18 35.9499 32.77 36.36 31.89 36.36C30.51 36.37 29.13 36.37 27.75 36.36C26.92 36.36 26.5 35.93 26.5 35.09C26.49 33.87 26.5 32.64 26.5 31.42L26.48 31.4301Z" fill="black"></path>
  <path d="M19.4904 55.58C15.8604 55.58 12.2404 55.58 8.61042 55.58C8.43042 55.58 8.25042 55.59 8.07042 55.58C7.53042 55.52 7.19042 55.22 7.15042 54.67C7.11042 54.08 7.42041 53.73 7.99041 53.62C8.21041 53.58 8.44041 53.59 8.67041 53.59C15.9204 53.59 23.1704 53.59 30.4204 53.59C30.6704 53.59 30.9304 53.59 31.1604 53.64C31.6904 53.78 31.9704 54.1499 31.9204 54.6899C31.8804 55.1999 31.5504 55.51 31.0504 55.58C30.8504 55.61 30.6404 55.59 30.4404 55.59C26.7904 55.59 23.1404 55.59 19.5004 55.59L19.4904 55.58Z" fill="black"></path>
  <path d="M7.15044 32.8298C7.15044 32.0398 7.14044 31.2398 7.15044 30.4498C7.17044 29.7198 7.57044 29.2999 8.29044 29.2899C9.76044 29.2699 11.2304 29.2699 12.7104 29.2899C13.4204 29.2999 13.8304 29.7298 13.8404 30.4598C13.8604 32.0198 13.8604 33.5899 13.8404 35.1499C13.8404 35.9299 13.3904 36.3498 12.5904 36.3598C11.1904 36.3698 9.78044 36.3698 8.38044 36.3598C7.58044 36.3598 7.17044 35.9399 7.16044 35.1399C7.15044 34.3699 7.16044 33.5998 7.16044 32.8298H7.15044Z" fill="black"></path>
</svg>
