<?xml version="1.0" encoding="UTF-8"?>
<svg xmlns="http://www.w3.org/2000/svg" width="247" height="30" viewBox="0 0 247 30" fill="none">
  <path d="M35.5097 0.760002C34.5397 0.760002 33.5697 0.860003 32.6197 1.05C30.4997 1.48 28.4797 2.41 26.7597 3.73L31.3597 9.71C32.1697 9.08 33.1297 8.65 34.1297 8.44C34.5797 8.35 35.0397 8.3 35.4997 8.3C39.2497 8.3 42.2997 11.35 42.2997 15.1C42.2997 18.85 39.2497 21.9 35.4997 21.9C32.0697 21.9 29.2297 19.35 28.7697 16.04H21.1797C21.6697 23.51 27.8997 29.45 35.4897 29.45C43.0797 29.45 49.8397 23.01 49.8397 15.1C49.8397 7.19 43.3997 0.75 35.4897 0.75L35.5097 0.760002Z" fill="#41B2D4"></path>
  <path d="M15.7798 21.77C15.3298 21.86 14.8698 21.91 14.3998 21.91C10.6498 21.91 7.5998 18.86 7.5998 15.11C7.5998 11.36 10.6498 8.31001 14.3998 8.31001C17.6898 8.31001 20.4398 10.66 21.0598 13.76H28.6798C27.9998 6.48001 21.8498 0.76001 14.3998 0.76001C6.4898 0.76001 0.0498047 7.20001 0.0498047 15.11C0.0498047 23.02 6.4898 29.46 14.3998 29.46C15.3698 29.46 16.3398 29.36 17.2898 29.17C19.4098 28.74 21.4298 27.81 23.1498 26.49L18.5498 20.51C17.7398 21.14 16.7798 21.57 15.7798 21.78V21.77Z" fill="#0091C6"></path>
  <path d="M75.3102 8.3199C74.8202 7.6999 74.1502 7.2399 73.3102 6.9399C72.4701 6.6399 71.6702 6.4899 70.9202 6.4899C70.4802 6.4899 70.0302 6.5399 69.5602 6.6399C69.0901 6.7399 68.6502 6.9099 68.2402 7.1299C67.8302 7.3499 67.4901 7.6399 67.2301 7.9999C66.9701 8.3599 66.8401 8.7999 66.8401 9.3199C66.8401 10.1499 67.1502 10.7799 67.7702 11.2199C68.3902 11.6599 69.1701 12.0399 70.1201 12.3499C71.0601 12.6599 72.0802 12.9699 73.1702 13.2799C74.2602 13.5899 75.2702 14.0299 76.2202 14.5999C77.1602 15.1699 77.9502 15.9299 78.5702 16.8899C79.1902 17.8499 79.5002 19.1299 79.5002 20.7299C79.5002 22.3299 79.2101 23.5899 78.6501 24.7299C78.0801 25.8699 77.3101 26.8099 76.3401 27.5599C75.3701 28.3099 74.2402 28.8699 72.9602 29.2299C71.6802 29.5899 70.3301 29.7699 68.9001 29.7699C67.1101 29.7699 65.4601 29.4999 63.9301 28.9499C62.4001 28.3999 60.9802 27.5299 59.6602 26.3099L63.9702 21.5699C64.5902 22.3999 65.3702 23.0399 66.3202 23.4899C67.2602 23.9399 68.2402 24.1699 69.2502 24.1699C69.7402 24.1699 70.2402 24.1099 70.7402 23.9999C71.2402 23.8899 71.7002 23.7099 72.1002 23.4799C72.5002 23.2499 72.8202 22.9499 73.0702 22.5899C73.3202 22.2299 73.4402 21.7999 73.4402 21.3099C73.4402 20.4799 73.1202 19.8299 72.4902 19.3499C71.8602 18.8699 71.0602 18.4599 70.1002 18.1299C69.1402 17.7899 68.1102 17.4599 66.9902 17.1199C65.8802 16.7799 64.8402 16.3299 63.8802 15.7599C62.9202 15.1899 62.1302 14.4399 61.4902 13.5099C60.8602 12.5799 60.5401 11.3499 60.5401 9.8199C60.5401 8.2899 60.8302 7.0499 61.4102 5.9399C61.9902 4.8299 62.7702 3.8999 63.7402 3.1499C64.7102 2.3999 65.8302 1.8399 67.1002 1.4599C68.3702 1.0899 69.6702 0.899902 71.0202 0.899902C72.5702 0.899902 74.0702 1.1199 75.5202 1.5599C76.9702 1.9999 78.2802 2.7399 79.4402 3.7699L75.2901 8.3099L75.3102 8.3199Z" fill="#575757"></path>
  <path d="M100.9 8.74989C100.31 8.02989 99.57 7.46989 98.71 7.0799C97.84 6.6899 96.84 6.49989 95.7 6.49989C94.56 6.49989 93.5099 6.7199 92.5399 7.1599C91.5699 7.5999 90.73 8.20989 90.02 8.99989C89.31 9.78989 88.75 10.7299 88.35 11.8099C87.95 12.8999 87.75 14.0799 87.75 15.3399C87.75 16.5999 87.95 17.8199 88.35 18.8899C88.75 19.9599 89.3 20.8999 90 21.6799C90.7 22.4699 91.52 23.0799 92.47 23.5199C93.41 23.9599 94.43 24.1799 95.52 24.1799C96.76 24.1799 97.86 23.9199 98.82 23.3999C99.78 22.8799 100.57 22.1599 101.19 21.2299L106.24 24.9999C105.08 26.6299 103.6 27.8299 101.81 28.6099C100.03 29.3899 98.19 29.7699 96.3 29.7699C94.15 29.7699 92.17 29.4299 90.36 28.7599C88.55 28.0899 86.98 27.1199 85.66 25.8699C84.34 24.6099 83.31 23.0899 82.57 21.3099C81.83 19.5199 81.46 17.5299 81.46 15.3299C81.46 13.1299 81.83 11.1399 82.57 9.34989C83.31 7.55989 84.34 6.03989 85.66 4.78989C86.98 3.53989 88.55 2.56989 90.36 1.89989C92.17 1.22989 94.15 0.889893 96.3 0.889893C97.08 0.889893 97.8799 0.959892 98.7299 1.09989C99.57 1.23989 100.4 1.46989 101.21 1.77989C102.03 2.08989 102.81 2.50989 103.56 3.01989C104.31 3.53989 104.98 4.16989 105.58 4.91989L100.92 8.71989L100.9 8.74989Z" fill="#575757"></path>
  <path d="M118.56 1.59985H123.57L135.53 29.0799H128.7L126.33 23.2599H115.65L113.36 29.0799H106.68L118.56 1.59985ZM120.89 9.59985L117.55 18.1399H124.27L120.89 9.59985Z" fill="#575757"></path>
  <path d="M138.281 1.59985H148.921C150.321 1.59985 151.64 1.73986 152.9 2.00986C154.16 2.27986 155.251 2.73986 156.201 3.36986C157.141 3.99986 157.891 4.85986 158.451 5.92986C159.011 6.99986 159.281 8.33985 159.281 9.94985C159.281 11.8899 158.78 13.5399 157.77 14.8999C156.76 16.2599 155.281 17.1199 153.34 17.4799L160.33 29.0899H153.071L147.321 18.0999H144.331V29.0899H138.271V1.60986L138.281 1.59985ZM144.34 12.9799H147.911C148.451 12.9799 149.031 12.9599 149.641 12.9199C150.251 12.8799 150.801 12.7599 151.291 12.5699C151.781 12.3799 152.191 12.0699 152.511 11.6599C152.831 11.2499 152.99 10.6599 152.99 9.90986C152.99 9.20986 152.851 8.64985 152.561 8.23985C152.271 7.82985 151.911 7.50986 151.471 7.28986C151.031 7.06986 150.52 6.91985 149.96 6.83985C149.39 6.75985 148.831 6.71986 148.291 6.71986H144.331V12.9699L144.34 12.9799Z" fill="#575757"></path>
  <path d="M164.75 1.59985H170.81V23.4899H182.03V29.0799H164.76V1.59985H164.75Z" fill="#575757"></path>
  <path d="M186.13 1.59985H204.8V7.18986H192.18V12.3099H204.1V17.8999H192.18V23.4899H205.49V29.0799H186.12V1.59985H186.13Z" fill="#575757"></path>
  <path d="M215.67 6.95985H207.83V1.59985H229.57V6.95985H221.73V29.0899H215.67V6.95985Z" fill="#575757"></path>
  <path d="M233.1 6.95985H225.26V1.59985H247V6.95985H239.16V29.0899H233.1V6.95985Z" fill="#575757"></path>
</svg>
