<?xml version="1.0" encoding="UTF-8"?>
<svg xmlns="http://www.w3.org/2000/svg" width="56" height="70" viewBox="0 0 56 70" fill="none">
  <g clip-path="url(#clip0_1450_12725)">
    <path d="M9.92892 20.1147C13.7217 21.5809 15.5478 26.2688 13.7962 30.096C12.8248 32.2205 11.7044 34.2766 10.6796 36.3768C10.5714 36.6005 10.5446 37.0152 10.6768 37.1791C11.0198 37.6037 11.3614 37.4142 11.7452 36.9867C11.7452 37.6507 11.7452 38.3161 11.7452 38.9801C11.7452 44.027 11.7424 49.0739 11.7452 54.1194C11.7452 56.8552 13.0511 58.1875 15.7361 58.1889C23.3399 58.1917 30.9437 58.1889 38.5475 58.1889H39.658C39.6875 58.2573 39.7311 58.3128 39.7185 58.3385C38.6191 60.5813 37.7363 62.9465 36.1225 64.8986C31.9924 69.8943 25.1843 71.4146 19.3981 68.5819C16.0299 66.9334 12.6758 65.2506 9.35677 63.5008C4.52235 60.9531 1.82609 56.7341 0.618543 51.4891C-0.749265 45.5431 0.223523 39.8607 2.84668 34.4404C5.11136 29.764 7.43931 25.1189 9.74054 20.4595C9.79256 20.3555 9.8516 20.2543 9.92892 20.1133V20.1147Z" fill="black"></path>
    <path d="M15.2061 5.51713V24.4082C14.6087 23.0845 13.9114 21.8776 12.9007 20.8645C12.7784 20.742 12.7559 20.4741 12.7559 20.2732C12.7489 14.3727 12.7404 8.47233 12.7559 2.57191C12.7601 1.01879 13.8158 0.00284976 15.3369 0.00142488C24.4392 0 33.5415 0 42.6424 0C44.4081 0 45.4118 0.976042 45.4118 2.74004C45.4146 19.991 45.4118 37.2406 45.4062 54.4916C45.4062 56.2029 44.4292 57.1918 42.7507 57.1932C33.6259 57.1975 24.4997 57.196 15.3748 57.1918C13.7905 57.1918 12.7629 56.1944 12.7573 54.5871C12.739 49.4219 12.7517 44.2553 12.7475 39.0901C12.7475 37.6952 12.7264 36.2988 12.7194 34.9038C12.7194 34.7656 12.7109 34.6074 12.7686 34.4906C13.5628 32.8705 14.3669 31.2576 15.2118 29.5563V48.6254H42.9545C42.9545 48.3176 42.9545 48.0383 42.9545 47.7605C42.9376 42.5013 42.9053 37.242 42.9067 31.9828C42.9095 23.4535 42.9292 14.9242 42.9658 6.39485C42.9686 5.73514 42.8308 5.50858 42.1307 5.51C33.474 5.53138 24.8159 5.51998 16.1593 5.51713C15.8809 5.51713 15.604 5.51713 15.2061 5.51713ZM29.0726 55.0545C30.3898 55.0644 31.4441 54.01 31.4441 52.682C31.4441 51.3982 30.4025 50.3324 29.1316 50.3167C27.806 50.2996 26.7348 51.3369 26.7208 52.6535C26.7053 53.9658 27.7624 55.0445 29.0726 55.0545ZM29.0276 3.52372C29.0276 3.52372 29.0276 3.52087 29.0276 3.51802C30.4053 3.51802 31.7815 3.51802 33.1592 3.51802C33.5387 3.51802 33.9956 3.53797 34.011 3.02359C34.0265 2.49781 33.5724 2.50351 33.1901 2.50209C30.4587 2.49924 27.7273 2.49781 24.9959 2.49639C24.6163 2.49639 24.1538 2.47786 24.1496 2.99367C24.1454 3.56077 24.6346 3.5223 25.0352 3.5223C26.3665 3.5223 27.6964 3.5223 29.0276 3.5223V3.52372ZM21.1652 3.00364C21.168 2.49069 20.6985 2.00908 20.1868 2.00053C19.6751 1.99198 19.1929 2.45222 19.1746 2.97087C19.1535 3.53512 19.616 4.00106 20.1882 3.99393C20.7252 3.98681 21.1624 3.54367 21.1652 3.00507V3.00364Z" fill="black"></path>
    <path d="M46.4394 44.6018C46.4282 44.3652 46.4197 44.2584 46.4197 44.1501C46.4197 38.6557 46.4099 33.16 46.4324 27.6657C46.4338 27.1897 46.5687 26.6825 46.7641 26.2465C47.2772 25.1052 47.8564 23.9937 48.4131 22.8724C49.2776 21.1312 50.9603 20.242 52.7372 20.584C54.5352 20.9303 55.9114 22.4549 55.9972 24.3585C56.0253 24.9669 55.851 25.6466 55.5811 26.1995C52.6332 32.2481 49.6488 38.2782 46.6713 44.3125C46.6362 44.3838 46.5715 44.4379 46.4394 44.6003V44.6018Z" fill="black"></path>
    <path d="M46.4141 24.2688C46.4141 24.0664 46.4141 23.8641 46.4141 23.6618C46.4155 18.9483 46.4282 14.2348 46.4057 9.52271C46.4028 8.91429 46.5729 8.62076 47.176 8.50677C48.6816 8.2218 49.9749 8.58087 50.9758 9.76352C52.002 10.9761 52.3577 12.4166 51.6773 13.87C50.0396 17.3738 48.2922 20.8234 46.5884 24.2959L46.4141 24.2716V24.2688Z" fill="black"></path>
  </g>
  <defs>
    <clipPath id="clip0_1450_12725">
      <rect width="56" height="70" fill="white"></rect>
    </clipPath>
  </defs>
</svg>
