<?xml version="1.0" encoding="UTF-8"?>
<svg xmlns="http://www.w3.org/2000/svg" width="78" height="65" viewBox="0 0 78 65" fill="none">
  <g clip-path="url(#clip0_1450_12730)">
    <path d="M58.1095 31.3309C59.7822 32.3617 61.4246 33.3724 63.062 34.3831C66.9817 36.7966 70.9215 39.175 74.8109 41.6438C77.2896 43.2177 78.3678 45.5659 77.8892 48.4621C77.4408 51.2025 75.7832 53.0429 73.108 53.8172C70.5335 54.5664 68.2412 53.9027 66.3569 52.007C63.2182 48.8594 60.1097 45.6815 56.9911 42.5137C56.8802 42.4031 56.7946 42.2673 56.6989 42.1416C56.6485 42.1618 56.5931 42.1869 56.5427 42.207V42.8305C56.5427 49.6639 56.5427 56.4922 56.5427 63.3256C56.5427 64.643 56.185 65 54.8549 65C37.1006 65 19.3413 65 1.587 65C0.423201 65 0 64.5927 0 63.4614C0.0100762 46.6067 0.0100762 29.747 0 12.8924C0 12.1834 0.241829 11.6906 0.765792 11.228C4.81643 7.66806 8.85196 4.09801 12.8875 0.517908C13.2855 0.165932 13.7037 0 14.2427 0C27.8305 0.0100565 41.4183 0.00502824 55.0111 0.0100565C56.1195 0.0100565 56.5477 0.437456 56.5477 1.53864C56.5477 6.58196 56.5376 11.6253 56.5628 16.6686C56.5628 17.096 56.7039 17.5787 56.9205 17.9458C59.3237 22.0086 59.7923 26.2725 58.3161 30.7527C58.2607 30.9236 58.1952 31.0946 58.1045 31.336L58.1095 31.3309ZM52.6734 38.1392C52.5475 38.2196 52.4769 38.2598 52.4114 38.3001C48.25 40.9147 43.8366 41.4226 39.1663 39.899C38.869 39.8035 38.5365 39.7633 38.2241 39.7633C29.2865 39.7532 20.3489 39.7583 11.4063 39.7532C11.1644 39.7532 10.9176 39.7532 10.6858 39.7029C10.0762 39.5772 9.65805 39.0292 9.69332 38.4409C9.72859 37.8425 10.1971 37.3447 10.8118 37.2793C11.0083 37.2592 11.2148 37.2693 11.4164 37.2693C18.8627 37.2693 26.314 37.2693 33.7604 37.2693C33.982 37.2693 34.1987 37.2693 34.5765 37.2693C32.4303 35.4038 30.9844 33.2869 30.0674 30.803C30.007 30.6421 29.6795 30.4912 29.4729 30.4912C27.4778 30.4661 25.4878 30.4761 23.4927 30.4761C19.3866 30.4761 15.2806 30.4761 11.1695 30.4761C10.58 30.4761 10.0913 30.3102 9.81927 29.7571C9.386 28.8721 10.046 27.9922 11.1594 27.9872C16.1522 27.9872 21.1449 27.9872 26.1377 27.9872C27.2007 27.9872 28.2587 27.9872 29.2563 27.9872C29.2563 26.9161 29.2009 25.9105 29.2714 24.9149C29.3419 23.8992 29.5334 22.8885 29.6795 21.8225C29.4578 21.8225 29.221 21.8225 28.9842 21.8225C24.2938 21.8225 19.6033 21.8225 14.9128 21.8225C13.623 21.8225 12.3333 21.8326 11.0486 21.8175C10.3382 21.8075 9.8092 21.2694 9.79912 20.6057C9.79408 19.937 10.3029 19.414 11.0183 19.3688C11.2199 19.3587 11.4214 19.3688 11.6229 19.3688C17.7442 19.3688 23.8605 19.3637 29.9818 19.3788C30.4906 19.3788 30.7577 19.233 30.9995 18.7805C35.4532 10.5241 46.1591 8.33179 53.5299 14.1545C53.676 14.2701 53.8322 14.3707 54.0236 14.5115V2.51915H15.1949C15.1949 3.86671 15.1949 5.16903 15.1949 6.47134C15.1949 8.54297 15.2 10.6096 15.1949 12.6812C15.1949 13.5008 14.7113 14.0439 13.9959 14.069C13.5172 14.0841 13.0336 14.0841 12.555 14.0841C9.43638 14.0841 6.31275 14.0841 3.19416 14.0841C2.98256 14.0841 2.76592 14.0841 2.53417 14.0841V62.501H54.0488C54.0639 62.3702 54.0841 62.2948 54.0841 62.2144C54.0841 54.7826 54.0841 47.3459 54.0791 39.9141C54.0791 39.7331 54.0035 39.5119 53.8826 39.3811C53.5097 38.9638 53.1017 38.5766 52.6785 38.1442L52.6734 38.1392ZM31.725 25.7948C31.7149 32.6785 37.2417 38.2347 44.1137 38.2598C51.0663 38.285 56.6636 32.7489 56.6686 25.8351C56.6737 18.9363 51.1116 13.3701 44.2144 13.3701C37.2921 13.3701 31.735 18.8961 31.725 25.7898V25.7948ZM54.6635 36.6005C54.739 36.681 54.8297 36.7866 54.9255 36.8821C57.903 39.9041 60.8755 42.926 63.853 45.943C65.3191 47.4313 66.76 48.9499 68.2613 50.398C69.9038 51.9769 72.3422 52.0322 74.0199 50.5941C76.2518 48.6834 75.9596 45.2491 73.4052 43.6702C68.0749 40.3717 62.7345 37.0883 57.3941 33.8048C57.2631 33.7244 57.1221 33.6691 57.0364 33.6288C56.2253 34.6445 55.4494 35.61 54.6534 36.6005H54.6635ZM12.6759 4.02259C9.79912 6.56688 7.02312 9.02065 4.15644 11.5549H12.6759V4.02259Z" fill="black"></path>
    <path d="M52.6734 38.1407C53.0966 38.5681 53.5047 38.9552 53.8775 39.3776C53.9934 39.5134 54.074 39.7296 54.074 39.9106C54.0841 47.3423 54.0841 54.7791 54.0791 62.2108C54.0791 62.2913 54.0589 62.3667 54.0438 62.4974H2.52409V14.0806C2.76088 14.0806 2.97249 14.0806 3.18409 14.0806C6.30268 14.0806 9.4263 14.0806 12.5449 14.0806C13.0235 14.0806 13.5072 14.0806 13.9858 14.0655C14.7062 14.0403 15.1798 13.5023 15.1849 12.6777C15.1949 10.6061 15.1849 8.53945 15.1849 6.46782C15.1849 5.1655 15.1849 3.86319 15.1849 2.51562H54.0236V14.513C53.8322 14.3772 53.676 14.2716 53.5299 14.156C46.1592 8.33329 35.4532 10.5256 30.9995 18.782C30.7526 19.2395 30.4906 19.3854 29.9818 19.3803C23.8605 19.3602 17.7442 19.3703 11.6229 19.3703C11.4214 19.3703 11.2199 19.3602 11.0183 19.3703C10.3029 19.4155 9.79409 19.9385 9.79912 20.6072C9.80416 21.2709 10.3382 21.809 11.0486 21.819C12.3383 21.8341 13.623 21.824 14.9128 21.824C19.6033 21.824 24.2938 21.824 28.9842 21.824C29.221 21.824 29.4578 21.824 29.6795 21.824C29.5334 22.89 29.3419 23.9007 29.2714 24.9164C29.2009 25.912 29.2563 26.9126 29.2563 27.9887C28.2588 27.9887 27.2008 27.9887 26.1377 27.9887C21.1449 27.9887 16.1522 27.9887 11.1594 27.9887C10.051 27.9887 9.386 28.8686 9.81927 29.7586C10.0913 30.3167 10.58 30.4776 11.1695 30.4776C15.2755 30.4726 19.3816 30.4776 23.4927 30.4776C25.4878 30.4776 27.4778 30.4676 29.4729 30.4927C29.6795 30.4927 30.007 30.6436 30.0674 30.8045C30.9844 33.2884 32.4303 35.4053 34.5765 37.2708C34.2037 37.2708 33.982 37.2708 33.7604 37.2708C26.314 37.2708 18.8627 37.2708 11.4164 37.2708C11.2148 37.2708 11.0133 37.2557 10.8118 37.2808C10.2022 37.3512 9.73363 37.844 9.69332 38.4424C9.65806 39.0307 10.0762 39.5787 10.6858 39.7045C10.9176 39.7547 11.1644 39.7547 11.4063 39.7547C20.3439 39.7547 29.2815 39.7547 38.2241 39.7648C38.5415 39.7648 38.869 39.805 39.1663 39.9006C43.8315 41.4241 48.2449 40.9163 52.4114 38.3016C52.4769 38.2613 52.5475 38.2161 52.6734 38.1407ZM28.2789 48.705C33.9115 48.705 39.5441 48.705 45.1767 48.705C45.3581 48.705 45.5395 48.715 45.7208 48.7C46.3657 48.6346 46.8393 48.1267 46.8544 47.4982C46.8695 46.8747 46.4211 46.3468 45.7763 46.2462C45.5798 46.216 45.3732 46.2261 45.1767 46.2261C33.9115 46.2261 22.6463 46.2261 11.3811 46.2261C11.1191 46.2261 10.8521 46.2261 10.6052 46.2914C10.0309 46.4423 9.72355 46.8647 9.70844 47.4379C9.69332 47.986 9.96034 48.4134 10.4944 48.6044C10.7312 48.6899 11.0032 48.705 11.2602 48.705C16.9331 48.71 22.606 48.705 28.2789 48.705ZM28.5157 55.478C22.9385 55.478 17.3664 55.478 11.7892 55.478C11.6078 55.478 11.4264 55.468 11.2451 55.4881C10.5901 55.5635 10.1316 56.0563 10.1165 56.6898C10.1014 57.3385 10.5246 57.8413 11.1796 57.9469C11.3357 57.972 11.502 57.967 11.6632 57.967C22.873 57.967 34.0878 57.967 45.2976 57.967C45.5143 57.967 45.746 57.9569 45.9526 57.9016C46.5269 57.7458 46.8191 57.3385 46.8544 56.7602C46.8897 56.2021 46.5169 55.6993 45.9576 55.5484C45.7309 55.4881 45.479 55.4831 45.2422 55.4831C39.665 55.4831 34.0929 55.4831 28.5157 55.4831V55.478Z" fill="white"></path>
    <path d="M31.725 25.7947C31.735 18.901 37.287 13.37 44.2144 13.375C51.1116 13.375 56.6737 18.9413 56.6686 25.84C56.6636 32.7538 51.0663 38.2899 44.1137 38.2648C37.2417 38.2396 31.7199 32.6784 31.725 25.7998V25.7947ZM48.0636 29.757C48.0636 30.1593 48.0434 30.5615 48.0636 30.9587C48.1139 31.7783 48.5875 32.1856 49.4591 32.1907C50.2803 32.1907 50.7942 31.7783 50.8345 30.999C50.8748 30.2196 50.8698 29.4352 50.8345 28.6558C50.7992 27.8412 50.2299 27.3837 49.3684 27.4088C48.5623 27.4289 48.1039 27.8664 48.0636 28.6759C48.0434 29.038 48.0636 29.395 48.0636 29.757ZM40.4711 29.752C40.4409 29.3195 40.4459 28.8318 40.3653 28.3591C40.2595 27.7407 39.6801 27.3786 38.9546 27.3988C38.2342 27.4239 37.7254 27.7759 37.685 28.4245C37.6296 29.3397 37.6145 30.2699 37.685 31.18C37.7354 31.8588 38.2544 32.1756 39.0353 32.1806C39.796 32.1856 40.2797 31.8487 40.3855 31.1699C40.456 30.7174 40.4459 30.2498 40.4762 29.7469L40.4711 29.752ZM40.5618 22.0537H40.5215C40.5215 21.6716 40.5215 21.2894 40.5215 20.9123C40.5215 20.8118 40.5013 20.7112 40.4812 20.6157C40.3603 20.0223 39.9018 19.6804 39.2015 19.6502C38.4811 19.6201 37.8815 19.9067 37.8362 20.4598C37.7505 21.4705 37.7304 22.4962 37.816 23.5069C37.8715 24.1656 38.471 24.4522 39.2972 24.4019C39.9925 24.3617 40.4107 24.0198 40.4913 23.3661C40.5467 22.9287 40.5417 22.4862 40.5618 22.0487V22.0537ZM50.9504 22.0839H50.9957C50.9655 21.5811 50.9806 21.0783 50.895 20.5905C50.7741 19.9369 50.2199 19.615 49.4188 19.6553C48.6984 19.6905 48.2399 20.0575 48.1996 20.7313C48.1542 21.571 48.1442 22.4158 48.1845 23.2555C48.2197 24.0349 48.7084 24.412 49.575 24.417C50.3861 24.422 50.8647 24.0449 50.9454 23.2907C50.9857 22.8935 50.9504 22.4912 50.9504 22.0889V22.0839ZM52.0336 28.9374C52.6633 28.8217 52.7691 29.1586 52.754 29.6615C52.7288 30.4559 52.749 31.2504 52.749 32.0549H54.0438V27.5395C53.0513 27.4339 51.9429 28.1731 52.0386 28.9374H52.0336ZM46.4715 19.7106C46.1289 19.7558 45.8417 19.7458 45.5949 19.8413C45.343 19.9419 45.1515 20.2084 44.8996 20.2838C44.426 20.4296 44.3001 20.676 44.4915 21.1487C45.0961 21.0833 45.2069 21.4152 45.1818 21.9481C45.1414 22.7376 45.1717 23.527 45.1717 24.2963H46.4765V19.7106H46.4715ZM43.3227 19.7458C43.0809 19.7458 42.839 19.6804 42.6577 19.7609C42.3352 19.8966 42.0682 20.1933 41.7407 20.2939C41.2369 20.4447 41.1966 20.7213 41.3377 21.1235C41.7911 21.204 42.0195 21.4688 42.0229 21.918C42.0229 22.7124 42.0229 23.5019 42.0229 24.2913H43.3227V19.7508V19.7458ZM45.0558 32.0499H46.3405V27.5496C45.4488 27.2177 45.081 28.2133 44.3354 28.1932V28.9374C44.9953 28.8167 45.081 29.1737 45.0608 29.6967C45.0306 30.471 45.0508 31.2504 45.0508 32.0499H45.0558ZM43.2219 27.5798C43.1766 27.5094 43.1312 27.439 43.0859 27.3686C42.4612 27.6602 41.8415 27.9519 41.1966 28.2536V28.9474C41.8616 28.8217 41.9473 29.1737 41.9221 29.7017C41.8868 30.476 41.912 31.2554 41.912 32.0549H43.2169V27.5798H43.2219ZM36.3701 24.3064V19.7609C36.1031 19.7609 35.8461 19.6955 35.6446 19.7759C35.3373 19.9017 35.0955 20.2134 34.7881 20.2989C34.2642 20.4447 34.2541 20.7263 34.38 21.1285C34.6068 21.1688 34.8032 21.1989 35.0753 21.2442V24.3014H36.3701V24.3064ZM52.8397 24.3014H54.1294V19.8011C53.1672 19.6653 52.0336 20.4296 52.1545 21.1436C52.7994 21.0732 52.8749 21.4503 52.8447 21.9884C52.8044 22.7426 52.8346 23.5019 52.8346 24.3064L52.8397 24.3014ZM36.2744 27.5647C36.1887 27.5345 36.1535 27.5144 36.1182 27.5043C35.4834 27.3183 35.1811 27.9569 34.6823 28.0776C34.1634 28.2083 34.1382 28.4999 34.2944 28.9324C34.9191 28.8117 35.0048 29.1687 34.9947 29.6615C34.9745 30.4509 34.9897 31.2454 34.9897 32.0499H36.2744V27.5597V27.5647Z" fill="white"></path>
    <path d="M54.6635 36.6006C55.4595 35.61 56.2303 34.6446 57.0465 33.6289C57.1322 33.6691 57.2732 33.7244 57.4042 33.8049C62.7396 37.0934 68.085 40.3718 73.4153 43.6703C75.9696 45.2492 76.2619 48.6834 74.03 50.5942C72.3523 52.0272 69.9088 51.9769 68.2714 50.3981C66.765 48.9499 65.3292 47.4314 63.8631 45.9431C60.8855 42.9211 57.908 39.8991 54.9355 36.8822C54.8398 36.7866 54.7491 36.681 54.6736 36.6006H54.6635Z" fill="white"></path>
    <path d="M12.6759 4.02344V11.5557H4.15643C7.02312 9.0215 9.80415 6.5627 12.6759 4.02344Z" fill="white"></path>
    <path d="M28.2789 48.7032C22.606 48.7032 16.9331 48.7032 11.2602 48.7032C11.0032 48.7032 10.7312 48.6881 10.4944 48.6026C9.96034 48.4166 9.69332 47.9841 9.70843 47.4361C9.72355 46.8628 10.0309 46.4405 10.6052 46.2896C10.8521 46.2243 11.1241 46.2243 11.3811 46.2243C22.6463 46.2243 33.9115 46.2243 45.1767 46.2243C45.3782 46.2243 45.5798 46.2142 45.7763 46.2444C46.4211 46.3399 46.8695 46.8729 46.8544 47.4964C46.8393 48.1199 46.3607 48.6278 45.7208 48.6982C45.5395 48.7183 45.3581 48.7032 45.1767 48.7032C39.5441 48.7032 33.9115 48.7032 28.2789 48.7032Z" fill="black"></path>
    <path d="M28.5157 55.4763C34.0929 55.4763 39.665 55.4763 45.2422 55.4763C45.479 55.4763 45.7309 55.4763 45.9576 55.5417C46.5169 55.6875 46.8897 56.1953 46.8544 56.7535C46.8191 57.3317 46.5269 57.739 45.9526 57.8949C45.746 57.9502 45.5143 57.9602 45.2976 57.9602C34.0878 57.9602 22.873 57.9602 11.6632 57.9602C11.502 57.9602 11.3408 57.9602 11.1796 57.9401C10.5246 57.8345 10.1014 57.3317 10.1165 56.6831C10.1316 56.0495 10.5901 55.5567 11.2451 55.4813C11.4264 55.4612 11.6078 55.4713 11.7892 55.4713C17.3664 55.4713 22.9385 55.4713 28.5157 55.4713V55.4763Z" fill="black"></path>
    <path d="M48.0636 29.7554C48.0636 29.3934 48.0484 29.0313 48.0636 28.6743C48.1039 27.8648 48.5623 27.4273 49.3684 27.4072C50.2299 27.3821 50.7942 27.8447 50.8345 28.6542C50.8698 29.4336 50.8698 30.218 50.8345 30.9974C50.7942 31.7768 50.2854 32.1941 49.4591 32.1891C48.5825 32.184 48.1139 31.7768 48.0636 30.9572C48.0384 30.5599 48.0636 30.1577 48.0636 29.7554Z" fill="black"></path>
    <path d="M40.4711 29.7517C40.4409 30.2596 40.451 30.7222 40.3804 31.1747C40.2797 31.8485 39.796 32.1904 39.0302 32.1854C38.2493 32.1804 37.7304 31.8586 37.68 31.1848C37.6095 30.2697 37.6246 29.3445 37.68 28.4293C37.7203 27.7807 38.2292 27.4287 38.9496 27.4036C39.6751 27.3784 40.2545 27.7455 40.3603 28.364C40.4409 28.8366 40.4359 29.3193 40.4661 29.7568L40.4711 29.7517ZM39.0756 28.4645C39.0453 28.4645 39.0151 28.4645 38.9798 28.4645V31.1245C39.0101 31.1245 39.0403 31.1245 39.0756 31.1245V28.4645Z" fill="black"></path>
    <path d="M40.5618 22.053C40.5417 22.4905 40.5467 22.938 40.4913 23.3704C40.4107 24.0241 39.9925 24.366 39.2972 24.4062C38.466 24.4565 37.8664 24.1649 37.816 23.5112C37.7354 22.5005 37.7556 21.4748 37.8362 20.4641C37.8815 19.9059 38.4811 19.6244 39.2015 19.6545C39.9018 19.6847 40.3603 20.0266 40.4812 20.62C40.5014 20.7155 40.5165 20.8161 40.5215 20.9166C40.5215 21.2988 40.5215 21.6759 40.5215 22.058H40.5618V22.053ZM39.1864 20.7306C39.1562 20.7306 39.1259 20.7306 39.0957 20.7306V23.3704H39.1864V20.7356V20.7306Z" fill="black"></path>
    <path d="M50.9504 22.0855C50.9504 22.4877 50.9856 22.89 50.9453 23.2872C50.8647 24.0414 50.3861 24.4186 49.575 24.4135C48.7135 24.4085 48.2248 24.0314 48.1845 23.252C48.1442 22.4123 48.1542 21.5676 48.1996 20.7278C48.2348 20.0541 48.6983 19.692 49.4188 19.6518C50.2148 19.6116 50.774 19.9334 50.895 20.587C50.9856 21.0748 50.9655 21.5826 50.9957 22.0804H50.9504V22.0855ZM49.6102 20.7278C49.58 20.7329 49.5498 20.7379 49.5196 20.7479V23.3677H49.6102V20.7329V20.7278Z" fill="black"></path>
    <path d="M52.0336 28.9391C51.9379 28.1799 53.0463 27.4357 54.0388 27.5413V32.0567H52.744C52.744 31.2521 52.7238 30.4577 52.749 29.6632C52.7641 29.1604 52.6634 28.8235 52.0286 28.9391H52.0336Z" fill="black"></path>
    <path d="M46.4715 19.7109V24.2967H45.1666C45.1666 23.5274 45.1364 22.7379 45.1767 21.9485C45.2019 21.4155 45.0911 21.0836 44.4865 21.149C44.295 20.6764 44.421 20.43 44.8946 20.2842C45.1465 20.2087 45.3379 19.9372 45.5898 19.8417C45.8367 19.7461 46.1239 19.7562 46.4665 19.7109H46.4715Z" fill="black"></path>
    <path d="M43.3227 19.7466V24.2871H42.0229C42.0229 23.4977 42.0229 22.7083 42.0229 21.9138C42.0229 21.4646 41.7945 21.1998 41.3377 21.1193C41.1966 20.7171 41.2319 20.4456 41.7407 20.2897C42.0682 20.1891 42.3352 19.8975 42.6577 19.7567C42.839 19.6813 43.0809 19.7416 43.3227 19.7416V19.7466Z" fill="black"></path>
    <path d="M45.0558 32.0485C45.0558 31.244 45.0306 30.4697 45.0659 29.6953C45.086 29.1724 45.0004 28.8154 44.3404 28.936V28.1919C45.086 28.212 45.4538 27.2164 46.3456 27.5483V32.0485H45.0608H45.0558Z" fill="black"></path>
    <path d="M43.2219 27.5784V32.0535H41.9171C41.9171 31.254 41.8868 30.4746 41.9271 29.7003C41.9523 29.1723 41.8667 28.8203 41.2017 28.9461V28.2522C41.8465 27.9505 42.4662 27.6588 43.091 27.3672C43.1363 27.4376 43.1816 27.508 43.227 27.5784H43.2219Z" fill="black"></path>
    <path d="M36.3701 24.3077H35.0753V21.2506C34.7982 21.2053 34.6068 21.1701 34.3801 21.1349C34.2591 20.7327 34.2642 20.446 34.7881 20.3053C35.0955 20.2198 35.3373 19.908 35.6446 19.7823C35.8462 19.7019 36.1081 19.7672 36.3701 19.7672V24.3128V24.3077Z" fill="black"></path>
    <path d="M52.8397 24.3023C52.8397 23.4977 52.8095 22.7385 52.8498 21.9842C52.88 21.4462 52.8044 21.0691 52.1595 21.1395C52.0386 20.4305 53.1722 19.6612 54.1345 19.797V24.2972H52.8447L52.8397 24.3023Z" fill="black"></path>
    <path d="M36.2744 27.5658V32.056H34.9897C34.9897 31.2515 34.9746 30.4621 34.9947 29.6676C35.0048 29.1749 34.9242 28.8178 34.2944 28.9385C34.1382 28.5061 34.1634 28.2094 34.6823 28.0837C35.1811 27.958 35.4884 27.3245 36.1182 27.5105C36.1535 27.5206 36.1887 27.5356 36.2744 27.5708V27.5658Z" fill="black"></path>
    <path d="M39.0756 28.4648V31.1248C39.0453 31.1248 39.0151 31.1248 38.9798 31.1248V28.4648C39.0101 28.4648 39.0403 28.4648 39.0756 28.4648Z" fill="white"></path>
    <path d="M39.1864 20.7316V23.3614H39.0957V20.7266C39.1259 20.7266 39.1562 20.7266 39.1864 20.7266V20.7316Z" fill="white"></path>
    <path d="M49.6102 20.7277V23.3625H49.5196V20.7428C49.5498 20.7377 49.58 20.7327 49.6102 20.7227V20.7277Z" fill="white"></path>
  </g>
  <defs>
    <clipPath id="clip0_1450_12730">
      <rect width="78" height="65" fill="white"></rect>
    </clipPath>
  </defs>
</svg>
